<?xml version="1.0" encoding="UTF-8"?>
<svg xmlns="http://www.w3.org/2000/svg" xmlns:xlink="http://www.w3.org/1999/xlink" width="24" height="24" viewBox="0 0 24 24" version="1.1">
<defs>
<filter id="alpha" filterUnits="objectBoundingBox" x="0%" y="0%" width="100%" height="100%">
  <feColorMatrix type="matrix" in="SourceGraphic" values="0 0 0 0 1 0 0 0 0 1 0 0 0 0 1 0 0 0 1 0"/>
</filter>
<mask id="mask0">
  <g filter="url(#alpha)">
<rect x="0" y="0" width="24" height="24" style="fill:rgb(0%,0%,0%);fill-opacity:0.501961;stroke:none;"/>
  </g>
</mask>
<clipPath id="clip2">
  <path d="M 15.746094 13.152344 L 18.621094 13.152344 L 18.621094 14.6875 L 15.746094 14.6875 Z M 15.746094 13.152344 "/>
</clipPath>
<clipPath id="clip1">
  <rect x="0" y="0" width="24" height="24"/>
</clipPath>
<g id="surface5" clip-path="url(#clip1)">
<g clip-path="url(#clip2)" clip-rule="nonzero">
<path style=" stroke:none;fill-rule:nonzero;fill:rgb(100%,100%,100%);fill-opacity:1;" d="M 15.746094 13.152344 L 15.746094 13.917969 C 15.746094 14.34375 16.113281 14.6875 16.566406 14.6875 L 18.621094 14.6875 L 18.621094 13.152344 Z M 15.746094 13.152344 "/>
</g>
</g>
<mask id="mask1">
  <g filter="url(#alpha)">
<rect x="0" y="0" width="24" height="24" style="fill:rgb(0%,0%,0%);fill-opacity:0.2;stroke:none;"/>
  </g>
</mask>
<clipPath id="clip4">
  <path d="M 3.429688 18.910156 L 5.480469 18.910156 L 5.480469 20.0625 L 3.429688 20.0625 Z M 3.429688 18.910156 "/>
</clipPath>
<clipPath id="clip3">
  <rect x="0" y="0" width="24" height="24"/>
</clipPath>
<g id="surface8" clip-path="url(#clip3)">
<g clip-path="url(#clip4)" clip-rule="nonzero">
<path style=" stroke:none;fill-rule:nonzero;fill:rgb(17.254902%,29.411765%,45.882353%);fill-opacity:1;" d="M 3.429688 18.910156 L 5.480469 18.910156 L 5.480469 20.0625 L 3.429688 20.0625 Z M 3.429688 18.910156 "/>
</g>
</g>
<mask id="mask2">
  <g filter="url(#alpha)">
<rect x="0" y="0" width="24" height="24" style="fill:rgb(0%,0%,0%);fill-opacity:0.2;stroke:none;"/>
  </g>
</mask>
<clipPath id="clip6">
  <path d="M 7.125 18.910156 L 9.175781 18.910156 L 9.175781 20.0625 L 7.125 20.0625 Z M 7.125 18.910156 "/>
</clipPath>
<clipPath id="clip5">
  <rect x="0" y="0" width="24" height="24"/>
</clipPath>
<g id="surface11" clip-path="url(#clip5)">
<g clip-path="url(#clip6)" clip-rule="nonzero">
<path style=" stroke:none;fill-rule:nonzero;fill:rgb(17.254902%,29.411765%,45.882353%);fill-opacity:1;" d="M 7.125 18.910156 L 9.175781 18.910156 L 9.175781 20.0625 L 7.125 20.0625 Z M 7.125 18.910156 "/>
</g>
</g>
<mask id="mask3">
  <g filter="url(#alpha)">
<rect x="0" y="0" width="24" height="24" style="fill:rgb(0%,0%,0%);fill-opacity:0.2;stroke:none;"/>
  </g>
</mask>
<clipPath id="clip8">
  <path d="M 14.105469 10.464844 L 23.136719 10.464844 L 23.136719 13.152344 L 14.105469 13.152344 Z M 14.105469 10.464844 "/>
</clipPath>
<clipPath id="clip7">
  <rect x="0" y="0" width="24" height="24"/>
</clipPath>
<g id="surface14" clip-path="url(#clip7)">
<g clip-path="url(#clip8)" clip-rule="nonzero">
<path style=" stroke:none;fill-rule:nonzero;fill:rgb(17.254902%,29.411765%,45.882353%);fill-opacity:1;" d="M 21.496094 12 L 15.746094 12 C 14.839844 12 14.105469 11.3125 14.105469 10.464844 L 14.105469 11.617188 C 14.105469 12.464844 14.839844 13.152344 15.746094 13.152344 L 21.496094 13.152344 C 22.402344 13.152344 23.136719 12.464844 23.136719 11.617188 L 23.136719 10.464844 C 23.136719 11.3125 22.402344 12 21.496094 12 "/>
</g>
</g>
<mask id="mask4">
  <g filter="url(#alpha)">
<rect x="0" y="0" width="24" height="24" style="fill:rgb(0%,0%,0%);fill-opacity:0.501961;stroke:none;"/>
  </g>
</mask>
<clipPath id="clip10">
  <path d="M 14.105469 7.007812 L 23.136719 7.007812 L 23.136719 9.695312 L 14.105469 9.695312 Z M 14.105469 7.007812 "/>
</clipPath>
<clipPath id="clip9">
  <rect x="0" y="0" width="24" height="24"/>
</clipPath>
<g id="surface17" clip-path="url(#clip9)">
<g clip-path="url(#clip10)" clip-rule="nonzero">
<path style=" stroke:none;fill-rule:nonzero;fill:rgb(100%,100%,100%);fill-opacity:1;" d="M 21.496094 7.007812 L 15.746094 7.007812 C 14.839844 7.007812 14.105469 7.695312 14.105469 8.542969 L 14.105469 9.695312 C 14.105469 8.847656 14.839844 8.160156 15.746094 8.160156 L 21.496094 8.160156 C 22.402344 8.160156 23.136719 8.847656 23.136719 9.695312 L 23.136719 8.542969 C 23.136719 7.695312 22.402344 7.007812 21.496094 7.007812 "/>
</g>
</g>
<mask id="mask5">
  <g filter="url(#alpha)">
<rect x="0" y="0" width="24" height="24" style="fill:rgb(0%,0%,0%);fill-opacity:0.501961;stroke:none;"/>
  </g>
</mask>
<clipPath id="clip12">
  <path d="M 16.976562 14.6875 L 18.621094 14.6875 L 18.621094 23.136719 L 16.976562 23.136719 Z M 16.976562 14.6875 "/>
</clipPath>
<clipPath id="clip11">
  <rect x="0" y="0" width="24" height="24"/>
</clipPath>
<g id="surface20" clip-path="url(#clip11)">
<g clip-path="url(#clip12)" clip-rule="nonzero">
<path style=" stroke:none;fill-rule:nonzero;fill:rgb(100%,100%,100%);fill-opacity:1;" d="M 16.976562 14.6875 L 16.976562 21.597656 L 18.621094 23.136719 L 18.621094 14.6875 Z M 16.976562 14.6875 "/>
</g>
</g>
<mask id="mask6">
  <g filter="url(#alpha)">
<rect x="0" y="0" width="24" height="24" style="fill:rgb(0%,0%,0%);fill-opacity:0.2;stroke:none;"/>
  </g>
</mask>
<clipPath id="clip14">
  <path d="M 16.976562 20.0625 L 20.261719 20.0625 L 20.261719 23.136719 L 16.976562 23.136719 Z M 16.976562 20.0625 "/>
</clipPath>
<clipPath id="clip13">
  <rect x="0" y="0" width="24" height="24"/>
</clipPath>
<g id="surface23" clip-path="url(#clip13)">
<g clip-path="url(#clip14)" clip-rule="nonzero">
<path style=" stroke:none;fill-rule:nonzero;fill:rgb(17.254902%,29.411765%,45.882353%);fill-opacity:1;" d="M 16.976562 20.0625 L 16.976562 21.597656 L 18.621094 23.136719 L 20.261719 23.136719 L 20.261719 21.984375 L 19.203125 21.984375 C 19.09375 21.984375 18.988281 21.941406 18.910156 21.871094 Z M 16.976562 20.0625 "/>
</g>
</g>
</defs>
<g id="surface1">
<path style=" stroke:none;fill-rule:nonzero;fill:rgb(51.372549%,80.784314%,46.27451%);fill-opacity:1;" d="M 11.375 9.851562 L 6.859375 5.953125 C 6.546875 5.683594 6.0625 5.683594 5.746094 5.953125 L 1.230469 9.851562 C 1.0625 9.996094 0.964844 10.203125 0.964844 10.417969 L 0.964844 22.367188 C 0.964844 22.789062 1.332031 23.136719 1.785156 23.136719 L 10.820312 23.136719 C 11.273438 23.136719 11.640625 22.789062 11.640625 22.367188 L 11.640625 10.417969 C 11.640625 10.203125 11.546875 9.996094 11.375 9.851562 Z M 6.304688 10.464844 C 5.621094 10.464844 5.070312 9.949219 5.070312 9.3125 C 5.070312 8.675781 5.621094 8.160156 6.304688 8.160156 C 6.984375 8.160156 7.535156 8.675781 7.535156 9.3125 C 7.535156 9.949219 6.984375 10.464844 6.304688 10.464844 Z M 6.304688 10.464844 "/>
<path style=" stroke:none;fill-rule:nonzero;fill:rgb(100%,100%,100%);fill-opacity:1;" d="M 11.375 9.851562 L 6.859375 5.953125 C 6.546875 5.683594 6.0625 5.683594 5.746094 5.953125 L 1.230469 9.851562 C 1.0625 9.996094 0.964844 10.203125 0.964844 10.417969 L 0.964844 11.953125 C 0.964844 11.738281 1.0625 11.535156 1.230469 11.386719 L 5.746094 7.488281 C 6.0625 7.21875 6.546875 7.21875 6.859375 7.488281 L 11.375 11.386719 C 11.546875 11.53125 11.640625 11.738281 11.640625 11.953125 L 11.640625 10.417969 C 11.640625 10.203125 11.546875 9.996094 11.375 9.851562 "/>
<path style=" stroke:none;fill-rule:nonzero;fill:rgb(81.960784%,100%,70.196078%);fill-opacity:1;" d="M 10.820312 21.984375 L 1.785156 21.984375 C 1.332031 21.984375 0.964844 21.640625 0.964844 21.214844 L 0.964844 22.367188 C 0.964844 22.789062 1.332031 23.136719 1.785156 23.136719 L 10.820312 23.136719 C 11.273438 23.136719 11.640625 22.789062 11.640625 22.367188 L 11.640625 21.214844 C 11.640625 21.640625 11.273438 21.984375 10.820312 21.984375 "/>
<path style=" stroke:none;fill-rule:nonzero;fill:rgb(42.745098%,42.745098%,66.666667%);fill-opacity:1;" d="M 10 16.992188 C 9.890625 16.992188 9.785156 16.949219 9.707031 16.878906 L 6.304688 13.695312 L 2.898438 16.878906 C 2.734375 17.027344 2.476562 17.023438 2.316406 16.875 C 2.160156 16.726562 2.160156 16.484375 2.316406 16.335938 L 6.011719 12.878906 C 6.171875 12.730469 6.433594 12.730469 6.59375 12.878906 L 10.289062 16.335938 C 10.449219 16.484375 10.449219 16.730469 10.289062 16.878906 C 10.210938 16.949219 10.105469 16.992188 10 16.992188 "/>
<path style=" stroke:none;fill-rule:nonzero;fill:rgb(63.921569%,71.372549%,84.705882%);fill-opacity:1;" d="M 15.746094 13.152344 L 15.746094 13.917969 C 15.746094 14.34375 16.113281 14.6875 16.566406 14.6875 L 20.671875 14.6875 C 21.125 14.6875 21.496094 14.34375 21.496094 13.917969 L 21.496094 13.152344 Z M 15.746094 13.152344 "/>
<use xlink:href="#surface5" mask="url(#mask0)"/>
<path style=" stroke:none;fill-rule:nonzero;fill:rgb(100%,100%,100%);fill-opacity:1;" d="M 9.175781 15.839844 L 9.175781 20.0625 L 7.125 20.0625 L 7.125 17.757812 L 5.480469 17.757812 L 5.480469 20.0625 L 3.429688 20.0625 L 3.429688 15.839844 L 6.304688 13.152344 Z M 9.175781 15.839844 "/>
<use xlink:href="#surface8" mask="url(#mask1)"/>
<use xlink:href="#surface11" mask="url(#mask2)"/>
<path style=" stroke:none;fill-rule:nonzero;fill:rgb(42.745098%,42.745098%,66.666667%);fill-opacity:1;" d="M 9.175781 20.445312 L 7.125 20.445312 C 6.898438 20.445312 6.714844 20.273438 6.714844 20.0625 L 6.714844 18.144531 L 5.890625 18.144531 L 5.890625 20.0625 C 5.890625 20.273438 5.707031 20.445312 5.480469 20.445312 L 3.429688 20.445312 C 3.203125 20.445312 3.019531 20.277344 3.019531 20.0625 L 3.019531 15.839844 C 3.019531 15.738281 3.0625 15.640625 3.136719 15.566406 L 6.011719 12.878906 C 6.171875 12.730469 6.433594 12.730469 6.59375 12.878906 L 9.46875 15.566406 C 9.542969 15.640625 9.585938 15.738281 9.585938 15.839844 L 9.585938 20.0625 C 9.585938 20.273438 9.402344 20.445312 9.175781 20.445312 Z M 7.535156 19.679688 L 8.765625 19.679688 L 8.765625 16 L 6.304688 13.695312 L 3.839844 16 L 3.839844 19.679688 L 5.070312 19.679688 L 5.070312 17.757812 C 5.070312 17.546875 5.253906 17.375 5.480469 17.375 L 7.125 17.375 C 7.351562 17.375 7.535156 17.546875 7.535156 17.757812 Z M 7.535156 19.679688 "/>
<path style=" stroke:none;fill-rule:nonzero;fill:rgb(61.960784%,69.803922%,80%);fill-opacity:1;" d="M 21.496094 7.007812 L 15.746094 7.007812 C 14.839844 7.007812 14.105469 7.695312 14.105469 8.542969 L 14.105469 11.617188 C 14.105469 12.464844 14.839844 13.152344 15.746094 13.152344 L 21.496094 13.152344 C 22.402344 13.152344 23.136719 12.464844 23.136719 11.617188 L 23.136719 8.542969 C 23.136719 7.695312 22.402344 7.007812 21.496094 7.007812 M 19.851562 10.082031 L 17.390625 10.082031 C 16.9375 10.082031 16.566406 9.734375 16.566406 9.3125 C 16.566406 8.886719 16.9375 8.542969 17.390625 8.542969 L 19.851562 8.542969 C 20.304688 8.542969 20.671875 8.886719 20.671875 9.3125 C 20.671875 9.734375 20.304688 10.082031 19.851562 10.082031 "/>
<use xlink:href="#surface14" mask="url(#mask3)"/>
<use xlink:href="#surface17" mask="url(#mask4)"/>
<path style=" stroke:none;fill-rule:nonzero;fill:rgb(63.921569%,71.372549%,84.705882%);fill-opacity:1;" d="M 18.597656 14.6875 L 18.660156 21.597656 L 17.371094 20.453125 L 17.382812 21.476562 L 18.796875 22.765625 L 20.261719 22.765625 L 20.261719 14.6875 Z M 18.597656 14.6875 "/>
<use xlink:href="#surface20" mask="url(#mask5)"/>
<path style=" stroke:none;fill-rule:nonzero;fill:rgb(100%,100%,100%);fill-opacity:1;" d="M 16.976562 14.6875 L 18.640625 14.6875 L 18.640625 15.839844 L 16.976562 15.839844 Z M 16.976562 14.6875 "/>
<use xlink:href="#surface23" mask="url(#mask6)"/>
<path style=" stroke:none;fill-rule:nonzero;fill:rgb(42.745098%,42.745098%,66.666667%);fill-opacity:1;" d="M 18.621094 21.214844 C 18.394531 21.214844 18.210938 21.042969 18.210938 20.832031 L 18.210938 16.222656 C 18.210938 16.011719 18.394531 15.839844 18.621094 15.839844 C 18.847656 15.839844 19.03125 16.011719 19.03125 16.222656 L 19.03125 20.832031 C 19.03125 21.042969 18.847656 21.214844 18.621094 21.214844 Z M 18.621094 21.214844 "/>
<path style=" stroke:none;fill-rule:nonzero;fill:rgb(39.215686%,39.215686%,62.745098%);fill-opacity:1;" d="M 21.496094 6.625 L 19.03125 6.625 C 19.03125 3.230469 16.089844 0.480469 12.460938 0.480469 C 9.28125 0.480469 6.628906 2.59375 6.023438 5.398438 C 5.820312 5.441406 5.628906 5.53125 5.46875 5.671875 L 0.953125 9.570312 C 0.699219 9.789062 0.554688 10.09375 0.554688 10.417969 L 0.554688 22.367188 C 0.554688 23.003906 1.105469 23.519531 1.785156 23.519531 L 10.820312 23.519531 C 11.5 23.519531 12.050781 23.003906 12.050781 22.367188 L 12.050781 10.417969 C 12.050781 10.09375 11.90625 9.789062 11.65625 9.570312 L 7.136719 5.671875 C 7.046875 5.59375 6.949219 5.53125 6.84375 5.484375 C 7.402344 3.0625 9.707031 1.25 12.460938 1.25 C 15.636719 1.25 18.210938 3.65625 18.210938 6.625 L 15.746094 6.625 C 14.613281 6.625 13.695312 7.484375 13.695312 8.542969 L 13.695312 11.617188 C 13.695312 12.542969 14.398438 13.320312 15.335938 13.496094 L 15.335938 13.917969 C 15.335938 14.554688 15.886719 15.070312 16.566406 15.070312 L 16.566406 15.839844 C 16.339844 15.839844 16.15625 16.011719 16.15625 16.222656 C 16.15625 16.4375 16.339844 16.609375 16.566406 16.609375 L 16.566406 17.375 C 16.339844 17.375 16.15625 17.546875 16.15625 17.757812 C 16.15625 17.972656 16.339844 18.144531 16.566406 18.144531 L 16.566406 18.910156 C 16.339844 18.910156 16.15625 19.082031 16.15625 19.296875 C 16.15625 19.507812 16.339844 19.679688 16.566406 19.679688 L 16.566406 20.449219 C 16.339844 20.449219 16.15625 20.621094 16.15625 20.832031 C 16.15625 21.042969 16.339844 21.214844 16.566406 21.214844 L 16.566406 21.597656 C 16.566406 21.703125 16.609375 21.800781 16.6875 21.871094 L 18.332031 23.40625 C 18.40625 23.480469 18.511719 23.519531 18.621094 23.519531 L 20.261719 23.519531 C 20.488281 23.519531 20.671875 23.347656 20.671875 23.136719 L 20.671875 15.070312 C 21.351562 15.070312 21.902344 14.554688 21.90625 13.917969 L 21.90625 13.496094 C 22.839844 13.316406 23.546875 12.542969 23.546875 11.617188 L 23.546875 8.542969 C 23.546875 7.484375 22.628906 6.625 21.496094 6.625 Z M 6.304688 9.3125 C 6.53125 9.3125 6.714844 9.140625 6.714844 8.929688 L 6.714844 8.648438 C 6.957031 8.78125 7.125 9.027344 7.125 9.3125 C 7.125 9.734375 6.757812 10.082031 6.304688 10.082031 C 5.851562 10.082031 5.480469 9.734375 5.480469 9.3125 C 5.480469 9.027344 5.648438 8.78125 5.890625 8.648438 L 5.890625 8.929688 C 5.890625 9.140625 6.074219 9.3125 6.304688 9.3125 Z M 11.097656 10.132812 C 11.183594 10.207031 11.230469 10.308594 11.230469 10.417969 L 11.230469 22.367188 C 11.230469 22.578125 11.046875 22.75 10.820312 22.75 L 1.785156 22.75 C 1.558594 22.75 1.375 22.578125 1.375 22.367188 L 1.375 10.417969 C 1.375 10.308594 1.425781 10.207031 1.507812 10.132812 L 5.898438 6.34375 C 5.894531 6.4375 5.890625 6.53125 5.890625 6.625 L 5.890625 7.828125 C 5.183594 7.996094 4.660156 8.597656 4.660156 9.3125 C 4.660156 10.160156 5.394531 10.847656 6.304688 10.847656 C 7.210938 10.847656 7.945312 10.160156 7.945312 9.3125 C 7.945312 8.597656 7.421875 7.996094 6.714844 7.828125 L 6.714844 6.625 C 6.714844 6.535156 6.714844 6.445312 6.71875 6.355469 Z M 18.621094 9.3125 C 18.847656 9.3125 19.03125 9.140625 19.03125 8.929688 L 19.851562 8.929688 C 20.078125 8.929688 20.261719 9.101562 20.261719 9.3125 C 20.261719 9.523438 20.078125 9.695312 19.851562 9.695312 L 17.390625 9.695312 C 17.160156 9.695312 16.976562 9.523438 16.976562 9.3125 C 16.976562 9.101562 17.160156 8.929688 17.390625 8.929688 L 18.210938 8.929688 C 18.210938 9.140625 18.394531 9.3125 18.621094 9.3125 Z M 19.851562 22.75 L 18.789062 22.75 L 17.390625 21.441406 L 17.390625 15.070312 L 19.851562 15.070312 Z M 21.082031 13.917969 C 21.082031 14.132812 20.898438 14.304688 20.671875 14.304688 L 16.566406 14.304688 C 16.339844 14.304688 16.15625 14.132812 16.15625 13.917969 L 16.15625 13.535156 L 21.082031 13.535156 Z M 22.726562 11.617188 C 22.726562 12.25 22.175781 12.765625 21.496094 12.769531 L 15.746094 12.769531 C 15.066406 12.765625 14.515625 12.25 14.515625 11.617188 L 14.515625 8.542969 C 14.515625 7.910156 15.066406 7.394531 15.746094 7.390625 L 18.210938 7.390625 L 18.210938 8.160156 L 17.386719 8.160156 C 16.707031 8.160156 16.15625 8.675781 16.15625 9.3125 C 16.15625 9.949219 16.707031 10.464844 17.386719 10.464844 L 19.851562 10.464844 C 20.53125 10.464844 21.082031 9.949219 21.082031 9.3125 C 21.082031 8.675781 20.53125 8.160156 19.851562 8.160156 L 19.03125 8.160156 L 19.03125 7.390625 L 21.496094 7.390625 C 22.175781 7.394531 22.726562 7.910156 22.726562 8.542969 Z M 22.726562 11.617188 "/>
</g>
</svg>
