<?xml version="1.0" encoding="UTF-8"?>
<svg xmlns="http://www.w3.org/2000/svg" xmlns:xlink="http://www.w3.org/1999/xlink" width="24" height="24" viewBox="0 0 24 24" version="1.1">
<g id="surface1">
<path style=" stroke:none;fill-rule:nonzero;fill:rgb(50.196078%,83.921569%,98.431373%);fill-opacity:1;" d="M 17.46875 14.785156 L 13.199219 13.601562 L 8.398438 13.601562 L 4.128906 14.785156 C 2.398438 15.265625 1.199219 16.84375 1.199219 18.640625 L 1.199219 24 L 20.398438 24 L 20.398438 18.640625 C 20.398438 16.84375 19.203125 15.265625 17.46875 14.785156 Z M 17.46875 14.785156 "/>
<path style=" stroke:none;fill-rule:nonzero;fill:rgb(98.823529%,72.54902%,54.509804%);fill-opacity:1;" d="M 13.199219 10.800781 L 13.199219 13.601562 C 13.199219 14.925781 12.125 16 10.800781 16 C 9.472656 16 8.398438 14.925781 8.398438 13.601562 L 8.398438 10.800781 Z M 13.199219 10.800781 "/>
<path style=" stroke:none;fill-rule:nonzero;fill:rgb(100%,82.745098%,70.196078%);fill-opacity:1;" d="M 15.199219 5.199219 L 15.199219 7.601562 C 15.199219 10.03125 13.230469 12 10.800781 12 C 8.371094 12 6.398438 10.03125 6.398438 7.601562 L 6.398438 5.199219 C 6.398438 4.316406 7.117188 3.601562 8 3.601562 L 13.601562 3.601562 C 14.484375 3.601562 15.199219 4.316406 15.199219 5.199219 Z M 15.199219 5.199219 "/>
<path style=" stroke:none;fill-rule:nonzero;fill:rgb(43.137255%,51.372549%,71.764706%);fill-opacity:1;" d="M 13.601562 1.199219 L 13.542969 1.199219 C 13.367188 0.511719 12.746094 0 12 0 L 10.398438 0 C 8.191406 0 6.398438 1.789062 6.398438 4 L 6.398438 7.601562 L 7.199219 5.199219 L 12 5.199219 C 12.746094 5.199219 13.363281 4.6875 13.542969 4 L 13.757812 4 C 14.132812 4 14.457031 4.261719 14.539062 4.625 L 15.199219 7.601562 L 15.199219 2.800781 C 15.199219 1.917969 14.484375 1.199219 13.601562 1.199219 Z M 13.601562 1.199219 "/>
<path style=" stroke:none;fill-rule:nonzero;fill:rgb(100%,82.745098%,70.196078%);fill-opacity:1;" d="M 15.199219 5.199219 L 15.457031 5.199219 C 15.949219 5.199219 16.324219 5.644531 16.246094 6.132812 L 16.113281 6.929688 C 16.046875 7.316406 15.714844 7.601562 15.324219 7.601562 L 15.199219 7.601562 Z M 15.199219 5.199219 "/>
<path style=" stroke:none;fill-rule:nonzero;fill:rgb(100%,82.745098%,70.196078%);fill-opacity:1;" d="M 6.398438 5.199219 L 6.144531 5.199219 C 5.648438 5.199219 5.273438 5.644531 5.355469 6.132812 L 5.488281 6.929688 C 5.554688 7.316406 5.886719 7.601562 6.277344 7.601562 L 6.398438 7.601562 Z M 6.398438 5.199219 "/>
<path style=" stroke:none;fill-rule:nonzero;fill:rgb(27.45098%,74.509804%,90.980392%);fill-opacity:1;" d="M 8.398438 13.199219 C 8.398438 13.199219 8.847656 14.492188 9.953125 15.035156 C 10.21875 15.164062 10.398438 15.417969 10.398438 15.714844 L 10.398438 16.800781 C 10.398438 16.800781 8.101562 16.664062 7.082031 13.964844 Z M 8.398438 13.199219 "/>
<path style=" stroke:none;fill-rule:nonzero;fill:rgb(27.45098%,74.509804%,90.980392%);fill-opacity:1;" d="M 13.199219 13.199219 C 13.199219 13.199219 12.753906 14.492188 11.644531 15.035156 C 11.382812 15.164062 11.199219 15.417969 11.199219 15.714844 L 11.199219 16.800781 C 11.199219 16.800781 13.5 16.664062 14.515625 13.964844 Z M 13.199219 13.199219 "/>
<path style=" stroke:none;fill-rule:nonzero;fill:rgb(27.45098%,74.509804%,90.980392%);fill-opacity:1;" d="M 4.398438 22.398438 L 5.199219 22.398438 L 5.199219 24 L 4.398438 24 Z M 4.398438 22.398438 "/>
<path style=" stroke:none;fill-rule:nonzero;fill:rgb(27.45098%,74.509804%,90.980392%);fill-opacity:1;" d="M 13.199219 21.199219 L 14.800781 21.199219 L 14.800781 22 L 13.199219 22 Z M 13.199219 21.199219 "/>
<path style=" stroke:none;fill-rule:nonzero;fill:rgb(43.137255%,51.372549%,71.764706%);fill-opacity:1;" d="M 22 24 L 15.601562 24 C 15.15625 24 14.800781 23.640625 14.800781 23.199219 L 14.800781 14.398438 C 14.800781 13.957031 15.15625 13.601562 15.601562 13.601562 L 22 13.601562 C 22.441406 13.601562 22.800781 13.957031 22.800781 14.398438 L 22.800781 23.199219 C 22.800781 23.640625 22.441406 24 22 24 Z M 22 24 "/>
<path style=" stroke:none;fill-rule:nonzero;fill:rgb(92.941176%,93.72549%,94.509804%);fill-opacity:1;" d="M 22 23.601562 L 15.601562 23.601562 C 15.378906 23.601562 15.199219 23.421875 15.199219 23.199219 L 15.199219 14.398438 C 15.199219 14.179688 15.378906 14 15.601562 14 L 22 14 C 22.21875 14 22.398438 14.179688 22.398438 14.398438 L 22.398438 23.199219 C 22.398438 23.421875 22.21875 23.601562 22 23.601562 Z M 22 23.601562 "/>
<path style=" stroke:none;fill-rule:nonzero;fill:rgb(43.137255%,51.372549%,71.764706%);fill-opacity:1;" d="M 19.601562 13.199219 C 19.601562 12.757812 19.242188 12.398438 18.800781 12.398438 C 18.359375 12.398438 18 12.757812 18 13.199219 L 17.199219 13.199219 C 16.980469 13.199219 16.800781 13.378906 16.800781 13.601562 L 16.800781 14 C 16.800781 14.21875 16.980469 14.398438 17.199219 14.398438 L 20.398438 14.398438 C 20.621094 14.398438 20.800781 14.21875 20.800781 14 L 20.800781 13.601562 C 20.800781 13.378906 20.621094 13.199219 20.398438 13.199219 Z M 19.601562 13.199219 "/>
<path style=" stroke:none;fill-rule:nonzero;fill:rgb(59.607843%,79.215686%,41.176471%);fill-opacity:1;" d="M 18 21.53125 L 15.835938 19.367188 L 16.964844 18.234375 L 18 19.269531 L 20.632812 16.632812 L 21.765625 17.765625 Z M 18 21.53125 "/>
<path style=" stroke:none;fill-rule:nonzero;fill:rgb(27.45098%,74.509804%,90.980392%);fill-opacity:1;" d="M 11.601562 20.398438 C 11.601562 20.179688 11.421875 20 11.199219 20 L 11.199219 18.800781 C 11.421875 18.800781 11.601562 18.621094 11.601562 18.398438 C 11.601562 18.179688 11.421875 18 11.199219 18 L 11.199219 15.601562 L 10.398438 15.601562 L 10.398438 24 L 11.199219 24 L 11.199219 22.800781 C 11.421875 22.800781 11.601562 22.621094 11.601562 22.398438 C 11.601562 22.179688 11.421875 22 11.199219 22 L 11.199219 20.800781 C 11.421875 20.800781 11.601562 20.621094 11.601562 20.398438 Z M 11.601562 20.398438 "/>
</g>
</svg>
