<?xml version="1.0" encoding="UTF-8"?>
<svg xmlns="http://www.w3.org/2000/svg" xmlns:xlink="http://www.w3.org/1999/xlink" width="24" height="24" viewBox="0 0 24 24" version="1.1">
<defs>
<filter id="alpha" filterUnits="objectBoundingBox" x="0%" y="0%" width="100%" height="100%">
  <feColorMatrix type="matrix" in="SourceGraphic" values="0 0 0 0 1 0 0 0 0 1 0 0 0 0 1 0 0 0 1 0"/>
</filter>
<mask id="mask0">
  <g filter="url(#alpha)">
<rect x="0" y="0" width="24" height="24" style="fill:rgb(0%,0%,0%);fill-opacity:0.101961;stroke:none;"/>
  </g>
</mask>
<clipPath id="clip1">
  <rect x="0" y="0" width="24" height="24"/>
</clipPath>
<g id="surface5" clip-path="url(#clip1)">
<path style=" stroke:none;fill-rule:nonzero;fill:rgb(0%,55.294118%,91.764706%);fill-opacity:1;" d="M 23.589844 16.675781 C 23.441406 17.128906 23.25 17.5625 22.980469 17.894531 C 22.652344 18.300781 22.246094 18.519531 21.808594 18.628906 C 21.679688 18.65625 21.550781 18.679688 21.417969 18.691406 C 21.074219 18.726562 20.71875 18.703125 20.382812 18.65625 C 19.550781 18.539062 18.734375 18.316406 17.9375 17.988281 C 17.808594 17.933594 17.679688 17.878906 17.550781 17.816406 C 17.355469 17.726562 17.164062 17.632812 16.972656 17.53125 C 16.191406 17.113281 15.386719 16.585938 14.558594 16.75 C 14.160156 16.828125 13.78125 17.070312 13.378906 17.144531 C 13.097656 17.191406 12.808594 17.164062 12.535156 17.066406 C 12.402344 17.019531 12.273438 16.964844 12.148438 16.894531 C 11.863281 16.734375 11.589844 16.539062 11.339844 16.308594 C 10.730469 15.765625 10.1875 15.09375 9.546875 14.625 C 8.84375 14.109375 8.0625 13.863281 7.269531 13.679688 C 7.140625 13.648438 7.011719 13.621094 6.882812 13.59375 C 6.511719 13.515625 6.144531 13.445312 5.78125 13.359375 C 5.433594 13.277344 5.074219 13.175781 4.773438 12.925781 C 4.554688 12.75 4.371094 12.503906 4.203125 12.246094 C 3.894531 11.769531 3.628906 11.246094 3.414062 10.6875 C 3.402344 10.660156 3.390625 10.628906 3.378906 10.601562 C 3.042969 9.71875 2.816406 8.757812 2.679688 7.761719 C 2.675781 7.734375 2.671875 7.703125 2.667969 7.675781 C 2.535156 6.699219 2.488281 5.691406 2.503906 4.691406 L 2.503906 4.601562 C 2.511719 4.109375 2.539062 3.617188 2.574219 3.128906 C 2.597656 2.789062 2.632812 2.433594 2.773438 2.148438 C 2.910156 1.863281 3.136719 1.675781 3.359375 1.523438 C 4.351562 0.847656 5.300781 0.660156 6.367188 0.988281 C 6.539062 1.039062 6.710938 1.097656 6.882812 1.15625 C 7.011719 1.199219 7.140625 1.246094 7.269531 1.292969 C 8.164062 1.613281 9.058594 1.953125 9.984375 2.054688 C 10.074219 2.0625 10.164062 2.070312 10.253906 2.074219 C 10.429688 2.085938 10.609375 2.089844 10.785156 2.082031 C 11.242188 2.066406 11.695312 2.007812 12.148438 1.902344 C 12.277344 1.875 12.40625 1.84375 12.535156 1.808594 C 13.09375 1.660156 13.648438 1.460938 14.191406 1.242188 C 14.304688 1.195312 14.414062 1.152344 14.527344 1.105469 C 14.777344 1 15.027344 0.894531 15.277344 0.789062 C 16.023438 0.480469 16.777344 0.195312 17.550781 0.0820312 C 17.617188 0.0742188 17.683594 0.0664062 17.75 0.0585938 C 17.8125 0.0507812 17.875 0.0429688 17.9375 0.0390625 C 19.140625 -0.0429688 20.355469 0.328125 21.417969 1.085938 C 21.550781 1.179688 21.679688 1.28125 21.808594 1.386719 C 21.984375 1.53125 22.15625 1.691406 22.320312 1.859375 C 22.660156 2.207031 22.980469 2.601562 23.222656 3.074219 C 23.457031 3.539062 23.609375 4.058594 23.699219 4.601562 C 23.703125 4.632812 23.707031 4.660156 23.710938 4.691406 C 23.839844 5.570312 23.800781 6.515625 23.65625 7.398438 C 23.640625 7.488281 23.625 7.582031 23.609375 7.675781 C 23.601562 7.703125 23.597656 7.734375 23.589844 7.761719 C 23.433594 8.597656 23.234375 9.429688 23.285156 10.28125 C 23.292969 10.390625 23.304688 10.496094 23.316406 10.601562 C 23.320312 10.628906 23.324219 10.660156 23.328125 10.6875 C 23.433594 11.386719 23.664062 12.046875 23.804688 12.734375 C 24.066406 14.042969 23.988281 15.425781 23.589844 16.675781 Z M 23.589844 16.675781 "/>
<path style=" stroke:none;fill-rule:nonzero;fill:rgb(0%,55.294118%,91.764706%);fill-opacity:1;" d="M 21.808594 4.691406 L 23.710938 4.691406 C 23.707031 4.660156 23.703125 4.632812 23.699219 4.601562 L 21.808594 4.601562 L 21.808594 1.386719 C 21.679688 1.28125 21.550781 1.179688 21.417969 1.085938 L 21.417969 4.601562 L 17.9375 4.601562 L 17.9375 0.0390625 C 17.875 0.0429688 17.8125 0.0507812 17.75 0.0585938 C 17.683594 0.0625 17.617188 0.0742188 17.550781 0.0820312 L 17.550781 4.601562 L 12.582031 4.601562 L 12.570312 4.585938 L 15.277344 0.789062 C 15.027344 0.894531 14.777344 1 14.527344 1.105469 L 12.535156 3.894531 L 12.535156 1.808594 C 12.40625 1.84375 12.277344 1.875 12.148438 1.902344 L 12.148438 3.992188 L 10.785156 2.082031 C 10.609375 2.089844 10.429688 2.085938 10.253906 2.074219 L 12.042969 4.585938 L 12.03125 4.601562 L 7.269531 4.601562 L 7.269531 1.292969 C 7.140625 1.246094 7.011719 1.199219 6.878906 1.15625 L 6.878906 4.601562 L 2.503906 4.601562 L 2.503906 4.691406 L 6.882812 4.691406 L 6.882812 7.675781 L 2.667969 7.675781 C 2.671875 7.703125 2.675781 7.734375 2.679688 7.761719 L 6.882812 7.761719 L 6.882812 10.601562 L 3.378906 10.601562 C 3.390625 10.628906 3.402344 10.660156 3.414062 10.6875 L 6.882812 10.6875 L 6.882812 13.59375 C 7.011719 13.621094 7.140625 13.648438 7.269531 13.679688 L 7.269531 10.6875 L 12.148438 10.6875 L 12.148438 16.894531 C 12.273438 16.960938 12.402344 17.019531 12.535156 17.066406 L 12.535156 10.6875 L 17.550781 10.6875 L 17.550781 17.816406 C 17.679688 17.878906 17.808594 17.933594 17.9375 17.988281 L 17.9375 10.6875 L 21.417969 10.6875 L 21.417969 18.691406 C 21.550781 18.679688 21.679688 18.65625 21.808594 18.625 L 21.808594 10.6875 L 23.328125 10.6875 C 23.324219 10.660156 23.320312 10.628906 23.316406 10.601562 L 21.808594 10.601562 L 21.808594 7.761719 L 23.589844 7.761719 C 23.597656 7.734375 23.601562 7.703125 23.605469 7.675781 L 21.808594 7.675781 Z M 21.417969 4.691406 L 21.417969 7.675781 L 17.9375 7.675781 L 17.9375 4.691406 Z M 17.550781 7.675781 L 12.535156 7.675781 L 12.535156 4.691406 L 17.550781 4.691406 Z M 7.269531 4.691406 L 12.078125 4.691406 L 12.148438 4.769531 L 12.148438 7.675781 L 7.269531 7.675781 Z M 7.269531 10.601562 L 7.269531 7.761719 L 12.148438 7.761719 L 12.148438 10.601562 Z M 12.535156 10.601562 L 12.535156 7.761719 L 17.550781 7.761719 L 17.550781 10.601562 Z M 21.417969 10.601562 L 17.9375 10.601562 L 17.9375 7.761719 L 21.417969 7.761719 Z M 21.417969 10.601562 "/>
<path style=" stroke:none;fill-rule:nonzero;fill:rgb(0%,55.294118%,91.764706%);fill-opacity:1;" d="M 19.746094 2.632812 L 19.714844 2.632812 C 19.738281 2.617188 19.75 2.589844 19.753906 2.558594 C 19.753906 2.496094 19.695312 2.449219 19.625 2.449219 L 18.722656 2.449219 C 18.652344 2.449219 18.59375 2.496094 18.59375 2.558594 C 18.59375 2.617188 18.652344 2.667969 18.722656 2.667969 L 18.75 2.667969 C 18.730469 2.683594 18.714844 2.710938 18.714844 2.746094 C 18.714844 2.796875 18.757812 2.839844 18.8125 2.851562 L 18.554688 2.851562 C 18.480469 2.851562 18.425781 2.902344 18.425781 2.960938 C 18.425781 3.023438 18.480469 3.070312 18.554688 3.070312 L 19.457031 3.070312 C 19.527344 3.070312 19.585938 3.023438 19.585938 2.960938 C 19.585938 2.910156 19.542969 2.867188 19.484375 2.855469 L 19.746094 2.855469 C 19.816406 2.855469 19.875 2.804688 19.875 2.746094 C 19.875 2.683594 19.816406 2.632812 19.746094 2.632812 Z M 9.964844 3.679688 L 9.9375 3.679688 C 9.957031 3.664062 9.972656 3.636719 9.972656 3.605469 C 9.972656 3.542969 9.914062 3.496094 9.84375 3.496094 L 8.941406 3.496094 C 8.871094 3.496094 8.8125 3.542969 8.8125 3.605469 C 8.8125 3.664062 8.871094 3.714844 8.941406 3.714844 L 8.972656 3.714844 C 8.949219 3.730469 8.9375 3.757812 8.933594 3.792969 C 8.933594 3.84375 8.976562 3.886719 9.035156 3.898438 L 8.773438 3.898438 C 8.703125 3.898438 8.644531 3.949219 8.644531 4.007812 C 8.644531 4.070312 8.703125 4.117188 8.773438 4.117188 L 9.675781 4.117188 C 9.746094 4.117188 9.804688 4.066406 9.804688 4.007812 C 9.804688 3.957031 9.761719 3.914062 9.707031 3.902344 L 9.964844 3.902344 C 10.035156 3.902344 10.09375 3.851562 10.09375 3.792969 C 10.09375 3.730469 10.035156 3.679688 9.964844 3.679688 Z M 21.128906 8.160156 L 21.101562 8.160156 C 21.121094 8.144531 21.136719 8.117188 21.136719 8.082031 C 21.136719 8.023438 21.078125 7.972656 21.007812 7.972656 L 20.105469 7.972656 C 20.035156 7.972656 19.976562 8.023438 19.976562 8.082031 C 19.976562 8.144531 20.035156 8.195312 20.105469 8.195312 L 20.136719 8.195312 C 20.113281 8.210938 20.101562 8.238281 20.097656 8.269531 C 20.097656 8.320312 20.140625 8.367188 20.195312 8.378906 L 19.9375 8.378906 C 19.867188 8.378906 19.808594 8.425781 19.808594 8.488281 C 19.808594 8.546875 19.867188 8.597656 19.9375 8.597656 L 20.839844 8.597656 C 20.910156 8.597656 20.96875 8.546875 20.96875 8.488281 C 20.96875 8.433594 20.925781 8.390625 20.871094 8.378906 L 21.128906 8.378906 C 21.199219 8.378906 21.257812 8.332031 21.257812 8.269531 C 21.257812 8.210938 21.199219 8.160156 21.128906 8.160156 Z M 21.128906 8.160156 "/>
</g>
<mask id="mask1">
  <g filter="url(#alpha)">
<rect x="0" y="0" width="24" height="24" style="fill:rgb(0%,0%,0%);fill-opacity:0.701961;stroke:none;"/>
  </g>
</mask>
<linearGradient id="linear0" gradientUnits="userSpaceOnUse" x1="0.50004" y1="1" x2="0.50004" y2="0" gradientTransform="matrix(1.648437,0,0,1.871094,19.476562,8.566406)">
<stop offset="0" style="stop-color:rgb(50.196078%,50.196078%,50.196078%);stop-opacity:0.25098;"/>
<stop offset="0.54" style="stop-color:rgb(50.196078%,50.196078%,50.196078%);stop-opacity:0.121569;"/>
<stop offset="1" style="stop-color:rgb(50.196078%,50.196078%,50.196078%);stop-opacity:0.101961;"/>
</linearGradient>
<clipPath id="clip2">
  <rect x="0" y="0" width="24" height="24"/>
</clipPath>
<g id="surface8" clip-path="url(#clip2)">
<path style=" stroke:none;fill-rule:nonzero;fill:url(#linear0);" d="M 20.785156 8.898438 L 20.785156 8.566406 L 19.476562 8.566406 L 19.476562 10.113281 C 19.476562 10.292969 19.589844 10.4375 19.730469 10.4375 L 20.527344 10.4375 C 20.667969 10.4375 20.785156 10.292969 20.785156 10.113281 L 20.785156 9.769531 C 20.972656 9.769531 21.125 9.574219 21.125 9.332031 C 21.125 9.09375 20.972656 8.898438 20.785156 8.898438 Z M 20.785156 9.601562 L 20.785156 9.066406 C 20.859375 9.0625 20.933594 9.113281 20.972656 9.199219 C 21.011719 9.28125 21.011719 9.386719 20.972656 9.472656 C 20.933594 9.554688 20.859375 9.605469 20.785156 9.601562 Z M 20.785156 9.601562 "/>
</g>
<mask id="mask2">
  <g filter="url(#alpha)">
<rect x="0" y="0" width="24" height="24" style="fill:rgb(0%,0%,0%);fill-opacity:0.101961;stroke:none;"/>
  </g>
</mask>
<clipPath id="clip3">
  <rect x="0" y="0" width="24" height="24"/>
</clipPath>
<g id="surface11" clip-path="url(#clip3)">
<path style=" stroke:none;fill-rule:nonzero;fill:rgb(0%,0%,0%);fill-opacity:1;" d="M 20.742188 8.953125 C 20.570312 8.953125 20.433594 9.128906 20.433594 9.347656 C 20.433594 9.566406 20.570312 9.746094 20.742188 9.746094 C 20.914062 9.746094 21.054688 9.566406 21.054688 9.347656 C 21.054688 9.128906 20.914062 8.953125 20.742188 8.953125 Z M 20.742188 9.59375 C 20.636719 9.59375 20.550781 9.484375 20.550781 9.347656 C 20.550781 9.210938 20.636719 9.101562 20.742188 9.101562 C 20.847656 9.101562 20.933594 9.210938 20.933594 9.347656 C 20.933594 9.484375 20.847656 9.59375 20.742188 9.59375 Z M 20.742188 9.59375 "/>
</g>
<mask id="mask3">
  <g filter="url(#alpha)">
<rect x="0" y="0" width="24" height="24" style="fill:rgb(0%,0%,0%);fill-opacity:0.101961;stroke:none;"/>
  </g>
</mask>
<clipPath id="clip4">
  <rect x="0" y="0" width="24" height="24"/>
</clipPath>
<g id="surface14" clip-path="url(#clip4)">
<path style=" stroke:none;fill-rule:nonzero;fill:rgb(0%,0%,0%);fill-opacity:1;" d="M 20.527344 8.648438 L 20.527344 10.058594 C 20.527344 10.136719 20.503906 10.214844 20.457031 10.269531 C 20.414062 10.324219 20.355469 10.355469 20.292969 10.355469 L 20.414062 10.355469 C 20.542969 10.355469 20.648438 10.222656 20.648438 10.058594 L 20.648438 8.648438 Z M 20.527344 8.648438 "/>
</g>
<mask id="mask4">
  <g filter="url(#alpha)">
<rect x="0" y="0" width="24" height="24" style="fill:rgb(0%,0%,0%);fill-opacity:0.701961;stroke:none;"/>
  </g>
</mask>
<linearGradient id="linear1" gradientUnits="userSpaceOnUse" x1="0.50006" y1="0.99997" x2="0.50006" y2="0.00006" gradientTransform="matrix(8.304687,0,0,22.894531,5.355469,0.203125)">
<stop offset="0" style="stop-color:rgb(50.196078%,50.196078%,50.196078%);stop-opacity:0.25098;"/>
<stop offset="0.54" style="stop-color:rgb(50.196078%,50.196078%,50.196078%);stop-opacity:0.121569;"/>
<stop offset="1" style="stop-color:rgb(50.196078%,50.196078%,50.196078%);stop-opacity:0.101961;"/>
</linearGradient>
<clipPath id="clip5">
  <rect x="0" y="0" width="24" height="24"/>
</clipPath>
<g id="surface17" clip-path="url(#clip5)">
<path style=" stroke:none;fill-rule:nonzero;fill:url(#linear1);" d="M 13.335938 21.777344 C 13.03125 21.796875 12.757812 22.128906 12.757812 22.128906 L 12.625 21.707031 L 12.613281 21.710938 C 12.675781 21.351562 13.992188 13.898438 12.675781 13.253906 C 11.664062 12.761719 10.589844 12.152344 9.75 12.175781 L 9.75 10.414062 L 10.929688 10.414062 L 10.929688 10.351562 L 11.863281 10.351562 C 12.042969 10.1875 11.78125 10.074219 11.492188 10.003906 C 11.503906 9.988281 11.511719 9.96875 11.523438 9.949219 L 13.015625 6.523438 C 13.015625 6.523438 13.359375 5.800781 13.140625 5.457031 C 12.917969 5.113281 12.597656 6.335938 12.597656 6.335938 L 11.371094 8.59375 C 11.371094 8.59375 10.132812 6.945312 9.34375 6.121094 C 9.257812 6.011719 9.15625 5.917969 9.050781 5.839844 C 8.90625 5.714844 8.796875 5.652344 8.742188 5.675781 C 8.625 5.632812 8.5 5.613281 8.375 5.613281 L 8.277344 5.613281 L 8.277344 5.355469 C 8.722656 5.167969 9.078125 4.734375 9.25 4.175781 C 9.53125 3.582031 9.582031 2.855469 9.390625 2.207031 C 9.40625 2.207031 9.417969 2.199219 9.433594 2.191406 C 9.476562 2.152344 9.480469 2.074219 9.476562 2.003906 C 9.445312 1.546875 9.238281 1.136719 8.921875 0.914062 C 8.796875 0.824219 8.65625 0.765625 8.5625 0.628906 C 8.484375 0.507812 8.449219 0.34375 8.355469 0.246094 C 8.242188 0.132812 8.078125 0.152344 7.941406 0.203125 C 7.785156 0.257812 7.636719 0.347656 7.503906 0.464844 C 7.355469 0.597656 7.21875 0.765625 7.046875 0.839844 C 6.921875 0.890625 6.789062 0.890625 6.664062 0.9375 C 6.472656 1.015625 6.320312 1.207031 6.253906 1.449219 C 6.222656 1.578125 6.210938 1.714844 6.21875 1.847656 C 6.144531 2.007812 6.085938 2.179688 6.042969 2.359375 L 6.015625 2.378906 L 6.042969 2.363281 C 5.851562 3.191406 6.042969 4.085938 6.539062 4.667969 C 6.730469 4.988281 6.996094 5.226562 7.296875 5.351562 L 7.296875 5.664062 C 7.082031 5.722656 6.878906 5.832031 6.691406 5.980469 C 6.691406 5.980469 6.675781 5.992188 6.648438 6.015625 L 6.640625 6.023438 C 6.460938 6.179688 5.851562 6.753906 5.871094 7.378906 C 5.871094 7.402344 5.871094 7.425781 5.871094 7.449219 C 5.839844 7.628906 5.820312 7.8125 5.820312 8 L 5.820312 12.515625 C 5.820312 13.015625 5.953125 13.5 6.195312 13.890625 C 5.679688 14.039062 5.355469 14.257812 5.355469 14.507812 C 5.355469 14.527344 5.355469 14.546875 5.355469 14.570312 C 5.355469 15.011719 6.386719 15.367188 7.664062 15.367188 C 7.816406 15.367188 7.96875 15.363281 8.113281 15.355469 L 9.554688 16.84375 L 7.246094 21.582031 C 7.246094 21.582031 6.484375 22.335938 7.074219 22.585938 C 7.664062 22.835938 8.867188 23.027344 8.867188 23.027344 C 8.867188 23.027344 9.0625 22.585938 8.792969 22.398438 C 8.523438 22.210938 8.15625 22.304688 8.15625 22.304688 L 8.203125 21.929688 C 8.203125 21.929688 12.207031 17.535156 11.371094 16.03125 C 11.210938 15.742188 11.050781 15.445312 10.890625 15.152344 L 11.519531 15.226562 L 11.664062 22.121094 L 11.683594 22.113281 C 11.644531 22.25 11.390625 23.269531 11.957031 23.097656 C 12.558594 22.914062 13.660156 22.257812 13.660156 22.257812 C 13.660156 22.257812 13.644531 21.753906 13.335938 21.777344 Z M 10.929688 9.910156 L 9.75 9.472656 L 9.75 8.1875 L 11.03125 9.921875 C 10.96875 9.914062 10.929688 9.910156 10.929688 9.910156 Z M 10.929688 9.910156 "/>
</g>
<mask id="mask5">
  <g filter="url(#alpha)">
<rect x="0" y="0" width="24" height="24" style="fill:rgb(0%,0%,0%);fill-opacity:0.0509804;stroke:none;"/>
  </g>
</mask>
<clipPath id="clip6">
  <rect x="0" y="0" width="24" height="24"/>
</clipPath>
<g id="surface20" clip-path="url(#clip6)">
<path style=" stroke:none;fill-rule:nonzero;fill:rgb(0%,0%,0%);fill-opacity:1;" d="M 5.957031 7.589844 L 8.304688 10.441406 L 10.898438 10.441406 L 10.898438 10.011719 L 8.664062 9.183594 L 6.753906 6.171875 C 6.753906 6.171875 5.886719 6.855469 5.957031 7.589844 Z M 5.957031 7.589844 "/>
</g>
<mask id="mask6">
  <g filter="url(#alpha)">
<rect x="0" y="0" width="24" height="24" style="fill:rgb(0%,0%,0%);fill-opacity:0.0509804;stroke:none;"/>
  </g>
</mask>
<clipPath id="clip7">
  <rect x="0" y="0" width="24" height="24"/>
</clipPath>
<g id="surface23" clip-path="url(#clip7)">
<path style=" stroke:none;fill-rule:nonzero;fill:rgb(0%,0%,0%);fill-opacity:1;" d="M 5.902344 12.003906 L 5.902344 12.148438 L 9.746094 12.160156 L 9.746094 12.003906 Z M 5.902344 12.003906 "/>
</g>
<mask id="mask7">
  <g filter="url(#alpha)">
<rect x="0" y="0" width="24" height="24" style="fill:rgb(0%,0%,0%);fill-opacity:0.101961;stroke:none;"/>
  </g>
</mask>
<clipPath id="clip8">
  <rect x="0" y="0" width="24" height="24"/>
</clipPath>
<g id="surface26" clip-path="url(#clip8)">
<path style=" stroke:none;fill-rule:nonzero;fill:rgb(0%,0%,0%);fill-opacity:1;" d="M 9.050781 12.773438 C 9.050781 12.773438 10.464844 13.691406 10.65625 14.734375 "/>
</g>
<mask id="mask8">
  <g filter="url(#alpha)">
<rect x="0" y="0" width="24" height="24" style="fill:rgb(0%,0%,0%);fill-opacity:0.0509804;stroke:none;"/>
  </g>
</mask>
<clipPath id="clip9">
  <rect x="0" y="0" width="24" height="24"/>
</clipPath>
<g id="surface29" clip-path="url(#clip9)">
<path style=" stroke:none;fill-rule:nonzero;fill:rgb(0%,0%,0%);fill-opacity:1;" d="M 10.707031 7.863281 L 11.210938 8.96875 L 11.328125 8.660156 Z M 10.707031 7.863281 "/>
</g>
<mask id="mask9">
  <g filter="url(#alpha)">
<rect x="0" y="0" width="24" height="24" style="fill:rgb(0%,0%,0%);fill-opacity:0.0509804;stroke:none;"/>
  </g>
</mask>
<clipPath id="clip10">
  <rect x="0" y="0" width="24" height="24"/>
</clipPath>
<g id="surface32" clip-path="url(#clip10)">
<path style=" stroke:none;fill-rule:nonzero;fill:rgb(0%,0%,0%);fill-opacity:1;" d="M 7.824219 4.734375 C 7.558594 4.734375 7.34375 5.007812 7.34375 5.347656 L 7.34375 5.558594 C 7.65625 5.6875 7.992188 5.6875 8.304688 5.558594 L 8.304688 5.347656 C 8.304688 5.183594 8.253906 5.027344 8.164062 4.914062 C 8.074219 4.800781 7.953125 4.734375 7.824219 4.734375 Z M 7.824219 4.734375 "/>
</g>
<mask id="mask10">
  <g filter="url(#alpha)">
<rect x="0" y="0" width="24" height="24" style="fill:rgb(0%,0%,0%);fill-opacity:0.0509804;stroke:none;"/>
  </g>
</mask>
<clipPath id="clip11">
  <rect x="0" y="0" width="24" height="24"/>
</clipPath>
<g id="surface35" clip-path="url(#clip11)">
<path style=" stroke:none;fill-rule:nonzero;fill:rgb(0%,0%,0%);fill-opacity:1;" d="M 6.289062 3.539062 C 6.289062 3.539062 6.671875 3.667969 6.886719 3.109375 C 7.105469 2.550781 7.273438 2.246094 8.160156 2.578125 C 9.050781 2.90625 9.226562 2.945312 9.269531 2.636719 C 9.300781 2.421875 8.984375 1.90625 8.78125 1.597656 C 8.683594 1.449219 8.519531 1.359375 8.347656 1.359375 L 7.34375 1.359375 L 6.746094 1.714844 L 6.289062 2.222656 L 6.191406 2.90625 Z M 6.289062 3.539062 "/>
</g>
<mask id="mask11">
  <g filter="url(#alpha)">
<rect x="0" y="0" width="24" height="24" style="fill:rgb(0%,0%,0%);fill-opacity:0.701961;stroke:none;"/>
  </g>
</mask>
<linearGradient id="linear2" gradientUnits="userSpaceOnUse" x1="-0.00016" y1="0.49987" x2="1.00035" y2="0.49987" gradientTransform="matrix(4.175781,0,0,9.628906,0.621094,12.574219)">
<stop offset="0" style="stop-color:rgb(50.196078%,50.196078%,50.196078%);stop-opacity:0.25098;"/>
<stop offset="0.54" style="stop-color:rgb(50.196078%,50.196078%,50.196078%);stop-opacity:0.121569;"/>
<stop offset="1" style="stop-color:rgb(50.196078%,50.196078%,50.196078%);stop-opacity:0.101961;"/>
</linearGradient>
<clipPath id="clip12">
  <rect x="0" y="0" width="24" height="24"/>
</clipPath>
<g id="surface38" clip-path="url(#clip12)">
<path style=" stroke:none;fill-rule:nonzero;fill:url(#linear2);" d="M 4.796875 16.0625 C 4.878906 15.644531 4.75 15.203125 4.476562 14.957031 C 4.402344 14.894531 4.324219 14.847656 4.257812 14.777344 C 4.148438 14.660156 4.085938 14.488281 4.042969 14.3125 C 3.933594 13.894531 3.898438 13.429688 3.707031 13.050781 C 3.535156 12.710938 3.199219 12.609375 2.898438 12.574219 C 2.789062 12.5625 2.675781 12.554688 2.574219 12.613281 C 2.40625 12.710938 2.328125 12.960938 2.320312 13.195312 C 2.3125 13.429688 2.359375 13.660156 2.375 13.894531 C 2.386719 14.128906 2.351562 14.386719 2.21875 14.542969 C 2.082031 14.699219 1.890625 14.71875 1.710938 14.75 C 1.476562 14.792969 1.246094 14.867188 1.023438 14.96875 C 0.839844 15.054688 0.628906 15.210938 0.621094 15.464844 C 0.613281 15.671875 0.746094 15.839844 0.84375 16.003906 C 1.027344 16.308594 1.117188 16.71875 1.058594 17.097656 C 0.992188 17.480469 0.78125 17.8125 0.742188 18.203125 C 0.734375 18.304688 0.734375 18.410156 0.773438 18.496094 C 0.804688 18.558594 0.84375 18.613281 0.890625 18.652344 C 1.003906 18.769531 1.132812 18.859375 1.242188 18.984375 C 1.46875 19.238281 1.59375 19.613281 1.6875 19.980469 C 1.695312 20.015625 1.703125 20.054688 1.714844 20.089844 L 1.488281 20.089844 C 1.035156 20.089844 0.664062 20.5625 0.664062 21.144531 C 0.664062 21.726562 1.035156 22.199219 1.488281 22.203125 L 3.722656 22.203125 C 4.179688 22.199219 4.546875 21.726562 4.550781 21.144531 C 4.550781 20.5625 4.179688 20.085938 3.71875 20.085938 L 3.109375 20.085938 C 3.253906 19.839844 3.40625 19.605469 3.628906 19.511719 C 3.851562 19.417969 4.121094 19.472656 4.296875 19.273438 C 4.382812 19.175781 4.429688 19.03125 4.449219 18.890625 C 4.484375 18.628906 4.453125 18.359375 4.351562 18.128906 C 4.28125 17.96875 4.179688 17.824219 4.15625 17.640625 C 4.136719 17.488281 4.179688 17.328125 4.238281 17.191406 C 4.410156 16.800781 4.707031 16.496094 4.796875 16.0625 Z M 4.796875 16.0625 "/>
</g>
<mask id="mask12">
  <g filter="url(#alpha)">
<rect x="0" y="0" width="24" height="24" style="fill:rgb(0%,0%,0%);fill-opacity:0.6;stroke:none;"/>
  </g>
</mask>
<clipPath id="clip13">
  <rect x="0" y="0" width="24" height="24"/>
</clipPath>
<g id="surface41" clip-path="url(#clip13)">
<path style="fill:none;stroke-width:0.5;stroke-linecap:butt;stroke-linejoin:miter;stroke:rgb(32.54902%,32.941176%,38.039216%);stroke-opacity:1;stroke-miterlimit:4;" d="M 43.809896 191.848145 C 43.809896 191.848145 51.4375 293.764648 31.651042 311.25293 " transform="matrix(0.0517241,0,0,0.0661157,0.62069,0.132231)"/>
</g>
<mask id="mask13">
  <g filter="url(#alpha)">
<rect x="0" y="0" width="24" height="24" style="fill:rgb(0%,0%,0%);fill-opacity:0.6;stroke:none;"/>
  </g>
</mask>
<clipPath id="clip14">
  <rect x="0" y="0" width="24" height="24"/>
</clipPath>
<g id="surface44" clip-path="url(#clip14)">
<path style="fill:none;stroke-width:0.5;stroke-linecap:butt;stroke-linejoin:miter;stroke:rgb(32.54902%,32.941176%,38.039216%);stroke-opacity:1;stroke-miterlimit:4;" d="M 1.971354 231.433105 C 1.971354 231.433105 21.380208 229.128906 45.169271 243.604004 M 44.791667 255.774902 C 44.791667 255.774902 55.591146 237.873047 78.776042 234.446289 M 3.859375 272.908691 C 3.859375 272.908691 30.820312 268.300293 43.205729 275.921875 M 41.695312 286.379395 C 41.695312 286.379395 55.817708 279.939453 71.677083 285.138672 " transform="matrix(0.0517241,0,0,0.0661157,0.62069,0.132231)"/>
</g>
<linearGradient id="linear3" gradientUnits="userSpaceOnUse" x1="0.5" y1="1" x2="0.5" y2="0" gradientTransform="matrix(0.0703125,0,0,0.09375,14.550781,12.683594)">
<stop offset="0" style="stop-color:rgb(50.196078%,50.196078%,50.196078%);stop-opacity:0.25098;"/>
<stop offset="0.54" style="stop-color:rgb(50.196078%,50.196078%,50.196078%);stop-opacity:0.121569;"/>
<stop offset="1" style="stop-color:rgb(50.196078%,50.196078%,50.196078%);stop-opacity:0.101961;"/>
</linearGradient>
<mask id="mask14">
  <g filter="url(#alpha)">
<rect x="0" y="0" width="24" height="24" style="fill:rgb(0%,0%,0%);fill-opacity:0.701961;stroke:none;"/>
  </g>
</mask>
<linearGradient id="linear4" gradientUnits="userSpaceOnUse" x1="0.5" y1="1" x2="0.5" y2="0" gradientTransform="matrix(5.488281,0,0,4.847656,13.5625,5.78125)">
<stop offset="0" style="stop-color:rgb(50.196078%,50.196078%,50.196078%);stop-opacity:0.25098;"/>
<stop offset="0.54" style="stop-color:rgb(50.196078%,50.196078%,50.196078%);stop-opacity:0.121569;"/>
<stop offset="1" style="stop-color:rgb(50.196078%,50.196078%,50.196078%);stop-opacity:0.101961;"/>
</linearGradient>
<clipPath id="clip15">
  <rect x="0" y="0" width="24" height="24"/>
</clipPath>
<g id="surface47" clip-path="url(#clip15)">
<path style=" stroke:none;fill-rule:nonzero;fill:url(#linear4);" d="M 14.261719 5.78125 L 18.351562 5.78125 C 18.738281 5.78125 19.050781 6.179688 19.050781 6.675781 L 19.050781 9.734375 C 19.050781 10.226562 18.738281 10.628906 18.351562 10.628906 L 14.261719 10.628906 C 13.875 10.628906 13.5625 10.226562 13.5625 9.734375 L 13.5625 6.675781 C 13.5625 6.179688 13.875 5.78125 14.261719 5.78125 Z M 14.261719 5.78125 "/>
</g>
</defs>
<g id="surface1">
<path style=" stroke:none;fill-rule:evenodd;fill:rgb(85.882353%,92.54902%,97.647059%);fill-opacity:1;" d="M 14.484375 22.875 C 14.484375 22.253906 12.550781 21.753906 10.164062 21.753906 C 7.777344 21.753906 5.84375 22.253906 5.84375 22.875 C 5.84375 23.496094 7.777344 24 10.164062 24 C 12.550781 24 14.484375 23.496094 14.484375 22.875 Z M 14.484375 22.875 "/>
<path style=" stroke:none;fill-rule:evenodd;fill:rgb(85.882353%,92.54902%,97.647059%);fill-opacity:1;" d="M 5.222656 22.148438 C 5.222656 21.527344 4.054688 21.023438 2.613281 21.023438 C 1.167969 21.023438 0 21.527344 0 22.148438 C 0 22.769531 1.167969 23.273438 2.613281 23.273438 C 4.054688 23.273438 5.222656 22.769531 5.222656 22.148438 Z M 5.222656 22.148438 "/>
<use xlink:href="#surface5" mask="url(#mask0)"/>
<use xlink:href="#surface8" mask="url(#mask1)"/>
<path style=" stroke:none;fill-rule:nonzero;fill:rgb(0%,55.294118%,91.764706%);fill-opacity:1;" d="M 20.742188 8.953125 C 20.570312 8.953125 20.433594 9.128906 20.433594 9.347656 C 20.433594 9.566406 20.570312 9.746094 20.742188 9.746094 C 20.914062 9.746094 21.054688 9.566406 21.054688 9.347656 C 21.054688 9.128906 20.914062 8.953125 20.742188 8.953125 Z M 20.742188 9.59375 C 20.636719 9.59375 20.550781 9.484375 20.550781 9.347656 C 20.550781 9.210938 20.636719 9.101562 20.742188 9.101562 C 20.847656 9.101562 20.933594 9.210938 20.933594 9.347656 C 20.933594 9.484375 20.847656 9.59375 20.742188 9.59375 Z M 20.742188 9.59375 "/>
<use xlink:href="#surface11" mask="url(#mask2)"/>
<path style=" stroke:none;fill-rule:nonzero;fill:rgb(0%,55.294118%,91.764706%);fill-opacity:1;" d="M 19.546875 8.648438 L 20.742188 8.648438 L 20.742188 10.058594 C 20.742188 10.222656 20.636719 10.355469 20.507812 10.355469 L 19.78125 10.355469 C 19.652344 10.355469 19.546875 10.222656 19.546875 10.058594 Z M 19.546875 8.648438 "/>
<use xlink:href="#surface14" mask="url(#mask3)"/>
<path style=" stroke:none;fill-rule:nonzero;fill:rgb(93.333333%,93.333333%,93.333333%);fill-opacity:1;" d="M 19.78125 7.507812 C 19.761719 7.511719 19.742188 7.523438 19.730469 7.542969 C 19.714844 7.582031 19.742188 7.621094 19.769531 7.644531 C 19.816406 7.691406 19.867188 7.738281 19.898438 7.800781 C 19.933594 7.863281 19.941406 7.953125 19.90625 8.015625 C 19.859375 8.097656 19.75 8.113281 19.738281 8.214844 C 19.730469 8.277344 19.773438 8.332031 19.816406 8.363281 C 19.925781 8.441406 20.0625 8.460938 20.140625 8.585938 C 20.175781 8.5 20.246094 8.453125 20.320312 8.433594 C 20.390625 8.414062 20.464844 8.414062 20.539062 8.398438 C 20.5625 8.398438 20.585938 8.382812 20.597656 8.355469 C 20.621094 8.304688 20.5625 8.242188 20.582031 8.1875 C 20.597656 8.148438 20.640625 8.152344 20.675781 8.136719 C 20.726562 8.109375 20.75 8.019531 20.734375 7.949219 C 20.71875 7.878906 20.675781 7.824219 20.632812 7.78125 C 20.511719 7.65625 20.363281 7.585938 20.21875 7.535156 C 20.148438 7.511719 20.070312 7.472656 19.996094 7.46875 C 19.925781 7.464844 19.851562 7.496094 19.78125 7.507812 Z M 19.78125 7.507812 "/>
<path style="fill:none;stroke-width:3.84;stroke-linecap:butt;stroke-linejoin:miter;stroke:rgb(100%,100%,100%);stroke-opacity:1;stroke-miterlimit:4;" d="M 208.445312 160.062012 L 160.1875 310.425781 " transform="matrix(0.0517241,0,0,0.0661157,0.62069,0.132231)"/>
<use xlink:href="#surface17" mask="url(#mask4)"/>
<path style=" stroke:none;fill-rule:nonzero;fill:rgb(0%,0%,0%);fill-opacity:1;" d="M 9.503906 3.199219 C 9.503906 1.980469 8.730469 0.992188 7.777344 0.992188 C 6.820312 0.992188 6.046875 1.980469 6.046875 3.199219 C 6.046875 4.421875 6.820312 5.410156 7.777344 5.410156 C 8.730469 5.410156 9.503906 4.421875 9.503906 3.199219 Z M 9.503906 3.199219 "/>
<path style=" stroke:none;fill-rule:nonzero;fill:rgb(0%,55.294118%,91.764706%);fill-opacity:1;" d="M 9.746094 8.261719 L 11.066406 10.050781 C 11.121094 10.128906 11.203125 10.164062 11.285156 10.152344 C 11.367188 10.140625 11.4375 10.078125 11.476562 9.988281 L 12.9375 6.636719 L 12.53125 6.453125 L 11.328125 8.660156 C 11.328125 8.660156 9.078125 5.660156 8.761719 5.808594 C 8.445312 5.957031 9.746094 8.261719 9.746094 8.261719 Z M 9.746094 8.261719 "/>
<path style="fill:none;stroke-width:2.4;stroke-linecap:butt;stroke-linejoin:miter;stroke:rgb(85.882353%,85.882353%,85.882353%);stroke-opacity:1;stroke-miterlimit:4;" d="M 127.638021 216.72168 L 90.104167 314.147949 M 146.216146 216.72168 L 183.825521 314.147949 " transform="matrix(0.0517241,0,0,0.0661157,0.62069,0.132231)"/>
<path style=" stroke:none;fill-rule:nonzero;fill:rgb(72.156863%,27.843137%,20%);fill-opacity:1;" d="M 9.960938 14.503906 C 9.960938 14.074219 8.949219 13.722656 7.703125 13.722656 C 6.457031 13.722656 5.449219 14.074219 5.449219 14.503906 C 5.449219 14.9375 6.457031 15.289062 7.703125 15.289062 C 8.949219 15.289062 9.960938 14.9375 9.960938 14.503906 Z M 9.960938 14.503906 "/>
<path style=" stroke:none;fill-rule:nonzero;fill:rgb(96.078431%,37.254902%,26.666667%);fill-opacity:1;" d="M 9.960938 14.445312 C 9.960938 14.011719 8.949219 13.660156 7.703125 13.660156 C 6.457031 13.660156 5.449219 14.011719 5.449219 14.445312 C 5.449219 14.875 6.457031 15.226562 7.703125 15.226562 C 8.949219 15.226562 9.960938 14.875 9.960938 14.445312 Z M 9.960938 14.445312 "/>
<path style="fill:none;stroke-width:2.4;stroke-linecap:butt;stroke-linejoin:miter;stroke:rgb(85.882353%,85.882353%,85.882353%);stroke-opacity:1;stroke-miterlimit:4;" d="M 118.575521 238.109375 L 159.734375 250.812012 M 155.278646 238.109375 L 114.119792 250.812012 " transform="matrix(0.0517241,0,0,0.0661157,0.62069,0.132231)"/>
<path style=" stroke:none;fill-rule:nonzero;fill:rgb(0%,55.294118%,91.764706%);fill-opacity:1;" d="M 7.730469 5.746094 L 8.402344 5.746094 C 9.144531 5.746094 9.746094 6.515625 9.746094 7.464844 L 9.746094 12.003906 L 5.902344 12.003906 L 5.902344 8.082031 C 5.902344 7.460938 6.097656 6.867188 6.4375 6.429688 C 6.78125 5.992188 7.246094 5.746094 7.730469 5.746094 Z M 7.730469 5.746094 "/>
<path style=" stroke:none;fill-rule:nonzero;fill:rgb(22.352941%,26.666667%,47.843137%);fill-opacity:1;" d="M 5.902344 12.003906 L 9.746094 12.003906 L 9.746094 14.671875 L 7.609375 14.671875 C 6.667969 14.671875 5.902344 13.699219 5.902344 12.496094 Z M 5.902344 12.003906 "/>
<use xlink:href="#surface20" mask="url(#mask5)"/>
<path style=" stroke:none;fill-rule:nonzero;fill:rgb(0%,55.294118%,91.764706%);fill-opacity:1;" d="M 5.957031 7.527344 L 8.304688 10.378906 L 10.898438 10.378906 L 10.898438 9.949219 L 8.664062 9.121094 L 6.753906 6.109375 C 6.753906 6.109375 5.886719 6.792969 5.957031 7.527344 Z M 5.957031 7.527344 "/>
<path style=" stroke:none;fill-rule:nonzero;fill:rgb(99.215686%,64.705882%,49.019608%);fill-opacity:1;" d="M 10.898438 9.949219 C 10.898438 9.949219 12.144531 10.074219 11.808594 10.378906 L 10.898438 10.378906 Z M 12.53125 6.453125 C 12.53125 6.453125 12.84375 5.257812 13.058594 5.59375 C 13.273438 5.929688 12.9375 6.636719 12.9375 6.636719 Z M 12.53125 6.453125 "/>
<use xlink:href="#surface23" mask="url(#mask6)"/>
<path style=" stroke:none;fill-rule:nonzero;fill:rgb(22.352941%,26.666667%,47.843137%);fill-opacity:1;" d="M 8.890625 14.84375 L 11.476562 15.144531 L 11.617188 21.886719 L 12.542969 21.5 C 12.542969 21.5 13.925781 13.863281 12.605469 13.21875 C 11.285156 12.574219 9.859375 11.726562 9.007812 12.417969 C 8.15625 13.109375 8.890625 14.84375 8.890625 14.84375 Z M 8.890625 14.84375 "/>
<use xlink:href="#surface26" mask="url(#mask7)"/>
<path style=" stroke:none;fill-rule:nonzero;fill:rgb(22.352941%,26.666667%,47.843137%);fill-opacity:1;" d="M 7.535156 14.644531 L 9.554688 16.730469 L 7.296875 21.363281 L 8.234375 21.699219 C 8.234375 21.699219 12.144531 17.40625 11.328125 15.933594 C 10.515625 14.460938 9.699219 12.742188 8.6875 12.710938 C 7.679688 12.679688 7.535156 14.644531 7.535156 14.644531 Z M 7.535156 14.644531 "/>
<use xlink:href="#surface29" mask="url(#mask8)"/>
<path style=" stroke:none;fill-rule:nonzero;fill:rgb(20%,20%,20%);fill-opacity:1;" d="M 7.296875 21.363281 C 7.296875 21.363281 6.550781 22.097656 7.128906 22.34375 C 7.703125 22.589844 8.882812 22.773438 8.882812 22.773438 C 8.882812 22.773438 9.074219 22.34375 8.808594 22.160156 C 8.546875 21.976562 8.183594 22.066406 8.183594 22.066406 L 8.234375 21.699219 Z M 11.636719 21.863281 C 11.636719 21.863281 11.3125 23.023438 11.902344 22.84375 C 12.492188 22.660156 13.566406 22.023438 13.566406 22.023438 C 13.566406 22.023438 13.550781 21.527344 13.253906 21.550781 C 12.953125 21.574219 12.683594 21.894531 12.683594 21.894531 L 12.554688 21.484375 Z M 11.636719 21.863281 "/>
<path style=" stroke:none;fill-rule:nonzero;fill:rgb(99.215686%,64.705882%,49.019608%);fill-opacity:1;" d="M 7.824219 4.671875 C 8.089844 4.671875 8.304688 4.949219 8.304688 5.285156 L 8.304688 5.898438 C 8.304688 6.238281 8.089844 6.515625 7.824219 6.515625 C 7.558594 6.515625 7.34375 6.238281 7.34375 5.898438 L 7.34375 5.285156 C 7.34375 4.949219 7.558594 4.671875 7.824219 4.671875 Z M 7.824219 4.671875 "/>
<use xlink:href="#surface32" mask="url(#mask9)"/>
<path style=" stroke:none;fill-rule:nonzero;fill:rgb(99.215686%,64.705882%,49.019608%);fill-opacity:1;" d="M 9.359375 3.628906 C 9.359375 2.546875 8.671875 1.667969 7.824219 1.667969 C 6.976562 1.667969 6.289062 2.546875 6.289062 3.628906 C 6.289062 4.714844 6.976562 5.59375 7.824219 5.59375 C 8.671875 5.59375 9.359375 4.714844 9.359375 3.628906 Z M 9.359375 3.628906 "/>
<use xlink:href="#surface35" mask="url(#mask10)"/>
<path style=" stroke:none;fill-rule:nonzero;fill:rgb(0%,0%,0%);fill-opacity:1;" d="M 6.289062 3.480469 C 6.289062 3.480469 6.671875 3.605469 6.886719 3.046875 C 7.105469 2.492188 7.273438 2.1875 8.160156 2.515625 C 9.050781 2.84375 9.226562 2.886719 9.269531 2.574219 C 9.300781 2.359375 8.984375 1.84375 8.78125 1.539062 C 8.683594 1.386719 8.519531 1.296875 8.347656 1.296875 L 7.34375 1.296875 L 6.746094 1.652344 L 6.289062 2.160156 L 6.191406 2.84375 Z M 6.289062 3.480469 "/>
<path style=" stroke:none;fill-rule:nonzero;fill:rgb(99.215686%,64.705882%,49.019608%);fill-opacity:1;" d="M 6.601562 3.476562 C 6.601562 3.257812 6.53125 3.078125 6.445312 3.078125 C 6.359375 3.078125 6.289062 3.257812 6.289062 3.476562 C 6.289062 3.695312 6.359375 3.875 6.445312 3.875 C 6.53125 3.875 6.601562 3.695312 6.601562 3.476562 Z M 6.601562 3.476562 "/>
<path style=" stroke:none;fill-rule:nonzero;fill:rgb(0%,0%,0%);fill-opacity:1;" d="M 6.332031 2.449219 C 6.296875 2.195312 6.261719 1.925781 6.328125 1.675781 C 6.390625 1.4375 6.539062 1.253906 6.730469 1.175781 C 6.847656 1.128906 6.980469 1.128906 7.101562 1.078125 C 7.269531 1.007812 7.402344 0.84375 7.550781 0.714844 C 7.679688 0.601562 7.824219 0.511719 7.972656 0.457031 C 8.109375 0.40625 8.269531 0.386719 8.382812 0.5 C 8.476562 0.59375 8.507812 0.757812 8.585938 0.875 C 8.675781 1.007812 8.8125 1.066406 8.933594 1.152344 C 9.242188 1.371094 9.445312 1.773438 9.476562 2.222656 C 9.480469 2.289062 9.476562 2.367188 9.433594 2.402344 C 9.40625 2.417969 9.375 2.425781 9.347656 2.421875 C 8.730469 2.410156 8.117188 2.398438 7.503906 2.328125 C 7.316406 2.304688 7.125 2.277344 6.933594 2.285156 C 6.640625 2.300781 6.351562 2.40625 6.09375 2.589844 "/>
<use xlink:href="#surface38" mask="url(#mask11)"/>
<path style=" stroke:none;fill-rule:nonzero;fill:rgb(30.196078%,71.372549%,67.45098%);fill-opacity:1;" d="M 2.890625 12.804688 C 2.785156 12.792969 2.675781 12.785156 2.582031 12.839844 C 2.421875 12.933594 2.347656 13.171875 2.339844 13.394531 C 2.332031 13.617188 2.378906 13.835938 2.390625 14.058594 C 2.402344 14.28125 2.371094 14.527344 2.242188 14.675781 C 2.113281 14.828125 1.929688 14.84375 1.757812 14.875 C 1.535156 14.914062 1.316406 14.984375 1.105469 15.082031 C 0.925781 15.164062 0.730469 15.316406 0.722656 15.554688 C 0.714844 15.753906 0.839844 15.910156 0.933594 16.066406 C 1.105469 16.359375 1.195312 16.746094 1.136719 17.109375 C 1.074219 17.476562 0.871094 17.789062 0.835938 18.164062 C 0.828125 18.257812 0.828125 18.359375 0.867188 18.441406 C 0.894531 18.5 0.929688 18.550781 0.976562 18.589844 C 1.085938 18.699219 1.207031 18.785156 1.3125 18.902344 C 1.527344 19.148438 1.644531 19.503906 1.734375 19.855469 C 1.824219 20.199219 1.894531 20.554688 1.945312 20.910156 C 2.128906 20.757812 2.371094 20.761719 2.570312 20.636719 C 2.996094 20.371094 3.136719 19.601562 3.585938 19.410156 C 3.796875 19.316406 4.054688 19.371094 4.222656 19.179688 C 4.300781 19.089844 4.347656 18.953125 4.367188 18.816406 C 4.402344 18.570312 4.367188 18.3125 4.273438 18.09375 C 4.207031 17.941406 4.109375 17.800781 4.085938 17.628906 C 4.066406 17.480469 4.109375 17.332031 4.167969 17.199219 C 4.328125 16.828125 4.613281 16.535156 4.699219 16.125 C 4.777344 15.726562 4.652344 15.308594 4.390625 15.070312 C 4.324219 15.011719 4.246094 14.96875 4.183594 14.902344 C 4.078125 14.789062 4.019531 14.625 3.976562 14.457031 C 3.875 14.0625 3.839844 13.617188 3.660156 13.257812 C 3.496094 12.933594 3.175781 12.835938 2.890625 12.804688 Z M 2.890625 12.804688 "/>
<use xlink:href="#surface41" mask="url(#mask12)"/>
<path style=" stroke:none;fill-rule:nonzero;fill:rgb(0%,55.294118%,91.764706%);fill-opacity:1;" d="M 1.546875 19.957031 L 3.671875 19.957031 C 4.109375 19.957031 4.460938 20.410156 4.460938 20.964844 C 4.460938 21.519531 4.109375 21.96875 3.671875 21.96875 L 1.546875 21.96875 C 1.113281 21.96875 0.761719 21.519531 0.761719 20.964844 C 0.761719 20.410156 1.113281 19.957031 1.546875 19.957031 Z M 1.546875 19.957031 "/>
<use xlink:href="#surface44" mask="url(#mask13)"/>
<path style=" stroke:none;fill-rule:nonzero;fill:url(#linear3);" d="M 14.585938 12.777344 C 14.605469 12.777344 14.621094 12.757812 14.621094 12.730469 C 14.621094 12.707031 14.605469 12.683594 14.585938 12.683594 C 14.566406 12.683594 14.550781 12.707031 14.550781 12.730469 C 14.550781 12.757812 14.566406 12.777344 14.585938 12.777344 Z M 14.585938 12.777344 "/>
<path style="fill:none;stroke-width:3.84;stroke-linecap:butt;stroke-linejoin:miter;stroke:rgb(100%,100%,100%);stroke-opacity:1;stroke-miterlimit:4;" d="M 372.174479 160.062012 L 420.432292 331.813477 " transform="matrix(0.0517241,0,0,0.0661157,0.62069,0.132231)"/>
<path style=" stroke:none;fill-rule:nonzero;fill:rgb(100%,100%,100%);fill-opacity:1;" d="M 8.894531 10.382812 L 22.378906 10.382812 L 22.378906 11.054688 L 8.894531 11.054688 Z M 8.894531 10.382812 "/>
<path style=" stroke:none;fill-rule:nonzero;fill:rgb(32.54902%,32.941176%,38.039216%);fill-opacity:1;" d="M 12.375 10.226562 L 14.269531 10.226562 C 14.355469 10.226562 14.425781 10.316406 14.425781 10.425781 C 14.425781 10.535156 14.355469 10.625 14.269531 10.625 L 12.375 10.625 C 12.289062 10.625 12.21875 10.535156 12.21875 10.425781 C 12.21875 10.316406 12.289062 10.226562 12.375 10.226562 Z M 12.375 10.226562 "/>
<use xlink:href="#surface47" mask="url(#mask14)"/>
<path style=" stroke:none;fill-rule:nonzero;fill:rgb(24.313725%,24.705882%,28.627451%);fill-opacity:1;" d="M 14.328125 5.867188 L 18.195312 5.867188 C 18.5625 5.867188 18.859375 6.25 18.859375 6.71875 L 18.859375 9.777344 C 18.859375 10.246094 18.5625 10.628906 18.195312 10.628906 L 14.328125 10.628906 C 13.957031 10.628906 13.660156 10.246094 13.660156 9.777344 L 13.660156 6.71875 C 13.660156 6.25 13.957031 5.867188 14.328125 5.867188 Z M 14.328125 5.867188 "/>
<path style=" stroke:none;fill-rule:nonzero;fill:rgb(32.54902%,32.941176%,38.039216%);fill-opacity:1;" d="M 14.398438 5.867188 L 18.265625 5.867188 C 18.632812 5.867188 18.933594 6.25 18.933594 6.71875 L 18.933594 9.777344 C 18.933594 10.246094 18.632812 10.628906 18.265625 10.628906 L 14.398438 10.628906 C 14.03125 10.628906 13.734375 10.246094 13.734375 9.777344 L 13.734375 6.71875 C 13.734375 6.25 14.03125 5.867188 14.398438 5.867188 Z M 14.398438 5.867188 "/>
<path style=" stroke:none;fill-rule:nonzero;fill:rgb(87.843137%,87.843137%,87.843137%);fill-opacity:1;" d="M 16.742188 8.214844 C 16.742188 8.097656 16.667969 8 16.574219 8 C 16.484375 8 16.40625 8.097656 16.40625 8.214844 C 16.40625 8.335938 16.484375 8.429688 16.574219 8.429688 C 16.667969 8.429688 16.742188 8.335938 16.742188 8.214844 Z M 16.742188 8.214844 "/>
</g>
</svg>
