<?xml version="1.0" encoding="UTF-8"?>
<svg xmlns="http://www.w3.org/2000/svg" xmlns:xlink="http://www.w3.org/1999/xlink" width="24" height="24" viewBox="0 0 24 24" version="1.1">
<g id="surface1">
<path style=" stroke:none;fill-rule:nonzero;fill:rgb(88.627451%,34.117647%,29.803922%);fill-opacity:1;" d="M 3 0 L 15.746094 0 L 22.5 6.730469 L 22.5 22.5 C 22.5 23.328125 21.828125 24 21 24 L 3 24 C 2.171875 24 1.5 23.328125 1.5 22.5 L 1.5 1.5 C 1.5 0.671875 2.171875 0 3 0 Z M 3 0 "/>
<path style=" stroke:none;fill-rule:nonzero;fill:rgb(70.980392%,21.176471%,16.078431%);fill-opacity:1;" d="M 22.476562 6.75 L 17.25 6.75 C 16.421875 6.75 15.75 6.078125 15.75 5.25 L 15.75 0.015625 Z M 22.476562 6.75 "/>
<path style=" stroke:none;fill-rule:nonzero;fill:rgb(100%,100%,100%);fill-opacity:1;" d="M 16.875 11.371094 C 17.125 11.371094 17.246094 11.152344 17.246094 10.941406 C 17.246094 10.722656 17.121094 10.507812 16.875 10.507812 L 15.441406 10.507812 C 15.164062 10.507812 15.007812 10.742188 15.007812 10.996094 L 15.007812 14.511719 C 15.007812 14.828125 15.183594 15 15.425781 15 C 15.667969 15 15.847656 14.828125 15.847656 14.511719 L 15.847656 13.546875 L 16.710938 13.546875 C 16.980469 13.546875 17.113281 13.328125 17.113281 13.109375 C 17.113281 12.894531 16.980469 12.683594 16.710938 12.683594 L 15.847656 12.683594 L 15.847656 11.371094 C 15.847656 11.371094 16.875 11.371094 16.875 11.371094 Z M 12.035156 10.507812 L 10.988281 10.507812 C 10.707031 10.507812 10.503906 10.703125 10.503906 10.992188 L 10.503906 14.515625 C 10.503906 14.875 10.792969 14.988281 11 14.988281 L 12.101562 14.988281 C 13.402344 14.988281 14.257812 14.132812 14.257812 12.8125 C 14.257812 11.414062 13.449219 10.507812 12.035156 10.507812 Z M 12.085938 14.121094 L 11.449219 14.121094 L 11.449219 11.378906 L 12.023438 11.378906 C 12.894531 11.378906 13.273438 11.960938 13.273438 12.769531 C 13.273438 13.523438 12.902344 14.121094 12.085938 14.121094 Z M 8.25 10.507812 L 7.214844 10.507812 C 6.921875 10.507812 6.757812 10.703125 6.757812 10.996094 L 6.757812 14.511719 C 6.757812 14.828125 6.945312 15 7.195312 15 C 7.449219 15 7.636719 14.828125 7.636719 14.511719 L 7.636719 13.488281 L 8.285156 13.488281 C 9.089844 13.488281 9.75 12.917969 9.75 12.003906 C 9.75 11.109375 9.113281 10.507812 8.25 10.507812 Z M 8.234375 12.660156 L 7.636719 12.660156 L 7.636719 11.335938 L 8.234375 11.335938 C 8.601562 11.335938 8.839844 11.621094 8.839844 12 C 8.835938 12.375 8.601562 12.660156 8.234375 12.660156 Z M 8.234375 12.660156 "/>
</g>
</svg>
