<?xml version="1.0" encoding="UTF-8"?>
<svg xmlns="http://www.w3.org/2000/svg" xmlns:xlink="http://www.w3.org/1999/xlink" width="24" height="24" viewBox="0 0 24 24" version="1.1">
<g id="surface1">
<path style=" stroke:none;fill-rule:nonzero;fill:rgb(89.411765%,89.411765%,89.019608%);fill-opacity:1;" d="M 15.375 7.125 L 15.375 9.75 L 14.625 10.5 L 15.375 11.25 L 14.625 12 L 15.375 12.75 L 14.625 13.5 L 15.375 14.25 L 15.375 15.375 L 13.5 16.5 L 11.625 15.375 L 11.625 7.125 Z M 15.375 7.125 "/>
<path style=" stroke:none;fill-rule:nonzero;fill:rgb(0%,57.647059%,72.54902%);fill-opacity:1;" d="M 10.125 3.925781 L 10.125 6.574219 C 10.125 6.914062 10.308594 7.226562 10.605469 7.394531 L 13.042969 8.746094 C 13.328125 8.90625 13.671875 8.90625 13.957031 8.746094 L 16.394531 7.394531 C 16.691406 7.226562 16.875 6.914062 16.875 6.574219 L 16.875 3.925781 C 16.875 3.585938 16.691406 3.273438 16.394531 3.105469 L 13.957031 1.753906 C 13.671875 1.59375 13.328125 1.59375 13.042969 1.753906 L 10.605469 3.105469 C 10.308594 3.273438 10.125 3.585938 10.125 3.925781 Z M 10.125 3.925781 "/>
<path style=" stroke:none;fill-rule:nonzero;fill:rgb(95.294118%,94.901961%,94.901961%);fill-opacity:1;" d="M 14.25 4.125 C 14.25 4.539062 13.914062 4.875 13.5 4.875 C 13.085938 4.875 12.75 4.539062 12.75 4.125 C 12.75 3.710938 13.085938 3.375 13.5 3.375 C 13.914062 3.375 14.25 3.710938 14.25 4.125 Z M 14.25 4.125 "/>
<path style=" stroke:none;fill-rule:nonzero;fill:rgb(97.254902%,79.215686%,65.882353%);fill-opacity:1;" d="M 5.625 16.875 L 6.949219 16.875 C 8.253906 16.875 9.535156 17.179688 10.699219 17.761719 C 11.015625 17.917969 11.363281 18 11.714844 18 L 14.625 18 C 15.144531 18 15.5625 18.417969 15.5625 18.9375 C 15.5625 19.457031 15.144531 19.875 14.625 19.875 L 14.601562 19.875 C 14.863281 19.875 15.125 19.820312 15.367188 19.71875 L 18.5 18.386719 C 18.746094 18.285156 19.023438 18.285156 19.269531 18.390625 C 19.515625 18.496094 19.707031 18.695312 19.804688 18.945312 C 19.902344 19.195312 19.898438 19.476562 19.792969 19.722656 C 19.683594 19.96875 19.484375 20.164062 19.230469 20.261719 L 13.4375 22.472656 C 11.988281 23.027344 10.378906 23.007812 8.941406 22.421875 L 5.625 21.046875 L 4.125 21 L 4.125 16.875 Z M 5.625 16.875 "/>
<path style=" stroke:none;fill-rule:nonzero;fill:rgb(0%,57.647059%,72.54902%);fill-opacity:1;" d="M 0.75 16.5 L 5.625 16.5 L 5.625 21.75 L 0.75 21.75 Z M 0.75 16.5 "/>
<path style=" stroke:none;fill-rule:nonzero;fill:rgb(0%,0%,0%);fill-opacity:1;" d="M 18 6.574219 C 18 6.625 18 6.671875 17.996094 6.722656 L 18.742188 6.777344 C 18.746094 6.710938 18.75 6.640625 18.75 6.574219 L 18.75 6 L 18 6 Z M 18 6.574219 "/>
<path style=" stroke:none;fill-rule:nonzero;fill:rgb(0%,0%,0%);fill-opacity:1;" d="M 18 3.925781 L 18 5.25 L 18.75 5.25 L 18.75 3.925781 C 18.75 2.90625 18.195312 1.964844 17.304688 1.46875 L 15.933594 0.707031 L 15.566406 1.363281 L 16.9375 2.125 C 17.59375 2.488281 18 3.175781 18 3.925781 Z M 18 3.925781 "/>
<path style=" stroke:none;fill-rule:nonzero;fill:rgb(0%,0%,0%);fill-opacity:1;" d="M 10.425781 7.71875 L 11.25 8.179688 L 11.25 15.375 C 11.25 15.507812 11.320312 15.628906 11.433594 15.695312 L 13.308594 16.820312 C 13.425781 16.894531 13.574219 16.894531 13.691406 16.820312 L 15.566406 15.695312 C 15.679688 15.628906 15.75 15.507812 15.75 15.375 L 15.75 14.25 C 15.75 14.152344 15.710938 14.054688 15.640625 13.984375 L 15.15625 13.5 L 15.640625 13.015625 C 15.785156 12.867188 15.785156 12.632812 15.640625 12.484375 L 15.15625 12 L 15.640625 11.515625 C 15.785156 11.367188 15.785156 11.132812 15.640625 10.984375 L 15.15625 10.5 L 15.640625 10.015625 C 15.710938 9.945312 15.75 9.847656 15.75 9.75 L 15.75 8.179688 L 16.574219 7.71875 C 16.992188 7.488281 17.25 7.050781 17.25 6.574219 L 17.25 3.925781 C 17.25 3.449219 16.992188 3.011719 16.574219 2.78125 L 14.136719 1.425781 C 13.742188 1.203125 13.257812 1.203125 12.863281 1.425781 L 10.425781 2.777344 C 10.007812 3.011719 9.75 3.449219 9.75 3.925781 L 9.75 6.574219 C 9.75 7.050781 10.007812 7.488281 10.425781 7.71875 Z M 15 9.59375 L 14.359375 10.234375 C 14.214844 10.382812 14.214844 10.617188 14.359375 10.765625 L 14.84375 11.25 L 14.359375 11.734375 C 14.214844 11.882812 14.214844 12.117188 14.359375 12.265625 L 14.84375 12.75 L 14.359375 13.234375 C 14.214844 13.382812 14.214844 13.617188 14.359375 13.765625 L 15 14.40625 L 15 15.164062 L 13.5 16.0625 L 12 15.164062 L 12 8.59375 L 12.75 9.011719 L 12.75 13.125 L 13.5 13.125 L 13.5 9.242188 C 13.722656 9.242188 13.941406 9.183594 14.136719 9.074219 L 15 8.59375 Z M 10.5 3.925781 C 10.5 3.722656 10.609375 3.535156 10.789062 3.433594 L 13.226562 2.082031 C 13.398438 1.984375 13.601562 1.984375 13.773438 2.082031 L 16.210938 3.433594 C 16.390625 3.535156 16.5 3.722656 16.5 3.925781 L 16.5 6.574219 C 16.5 6.777344 16.390625 6.964844 16.210938 7.066406 L 13.773438 8.417969 C 13.601562 8.515625 13.398438 8.515625 13.226562 8.417969 L 10.789062 7.066406 C 10.609375 6.964844 10.5 6.777344 10.5 6.574219 Z M 10.5 3.925781 "/>
<path style=" stroke:none;fill-rule:nonzero;fill:rgb(0%,0%,0%);fill-opacity:1;" d="M 13.5 5.25 C 14.121094 5.25 14.625 4.746094 14.625 4.125 C 14.625 3.503906 14.121094 3 13.5 3 C 12.878906 3 12.375 3.503906 12.375 4.125 C 12.375 4.746094 12.878906 5.25 13.5 5.25 Z M 13.5 3.75 C 13.707031 3.75 13.875 3.917969 13.875 4.125 C 13.875 4.332031 13.707031 4.5 13.5 4.5 C 13.292969 4.5 13.125 4.332031 13.125 4.125 C 13.125 3.917969 13.292969 3.75 13.5 3.75 Z M 13.5 3.75 "/>
<path style=" stroke:none;fill-rule:nonzero;fill:rgb(0%,0%,0%);fill-opacity:1;" d="M 12.375 6 L 14.625 6 L 14.625 6.75 L 12.375 6.75 Z M 12.375 6 "/>
<path style=" stroke:none;fill-rule:nonzero;fill:rgb(0%,0%,0%);fill-opacity:1;" d="M 12.75 13.875 L 13.5 13.875 L 13.5 14.625 L 12.75 14.625 Z M 12.75 13.875 "/>
<path style=" stroke:none;fill-rule:nonzero;fill:rgb(0%,0%,0%);fill-opacity:1;" d="M 20.152344 18.808594 C 20.019531 18.460938 19.75 18.183594 19.40625 18.042969 C 19.070312 17.898438 18.691406 17.898438 18.355469 18.042969 L 15.929688 19.074219 C 15.96875 18.703125 15.847656 18.335938 15.597656 18.058594 C 15.351562 17.78125 14.996094 17.625 14.625 17.625 L 11.714844 17.625 C 11.421875 17.625 11.132812 17.554688 10.867188 17.425781 C 9.652344 16.816406 8.308594 16.5 6.949219 16.5 L 6 16.5 C 6 16.292969 5.832031 16.125 5.625 16.125 L 0.75 16.125 L 0.75 16.875 L 5.25 16.875 L 5.25 21.375 L 0.75 21.375 L 0.75 22.125 L 5.625 22.125 C 5.832031 22.125 6 21.957031 6 21.75 L 6 21.605469 L 8.800781 22.769531 C 10.324219 23.394531 12.03125 23.410156 13.570312 22.820312 L 19.363281 20.613281 C 19.707031 20.484375 19.984375 20.21875 20.128906 19.882812 C 20.28125 19.542969 20.289062 19.15625 20.152344 18.808594 Z M 19.445312 19.582031 C 19.378906 19.734375 19.253906 19.851562 19.097656 19.914062 L 13.304688 22.121094 C 11.941406 22.644531 10.433594 22.625 9.085938 22.074219 L 6 20.792969 L 6 17.25 L 6.949219 17.25 C 8.195312 17.25 9.421875 17.539062 10.53125 18.097656 C 10.902344 18.277344 11.304688 18.375 11.714844 18.375 L 14.625 18.375 C 14.929688 18.375 15.179688 18.621094 15.1875 18.925781 C 15.191406 19.230469 14.953125 19.488281 14.648438 19.5 C 14.632812 19.5 14.617188 19.5 14.601562 19.5 L 10.125 19.5 L 10.125 20.25 L 14.601562 20.25 C 14.609375 20.25 14.617188 20.25 14.625 20.25 C 14.652344 20.25 14.675781 20.25 14.703125 20.246094 C 14.980469 20.234375 15.257812 20.175781 15.511719 20.066406 L 18.648438 18.734375 C 18.796875 18.667969 18.964844 18.667969 19.117188 18.734375 C 19.273438 18.796875 19.394531 18.925781 19.453125 19.082031 C 19.519531 19.242188 19.515625 19.421875 19.445312 19.582031 Z M 19.445312 19.582031 "/>
<path style=" stroke:none;fill-rule:nonzero;fill:rgb(0%,0%,0%);fill-opacity:1;" d="M 3.75 19.875 L 4.5 19.875 L 4.5 20.625 L 3.75 20.625 Z M 3.75 19.875 "/>
<path style=" stroke:none;fill-rule:nonzero;fill:rgb(0%,0%,0%);fill-opacity:1;" d="M 9.75 9 L 10.5 9 L 10.5 13.875 L 9.75 13.875 Z M 9.75 9 "/>
</g>
</svg>
