<?xml version="1.0" encoding="UTF-8"?>
<svg xmlns="http://www.w3.org/2000/svg" xmlns:xlink="http://www.w3.org/1999/xlink" width="24" height="24" viewBox="0 0 24 24" version="1.1">
<g id="surface1">
<path style=" stroke:none;fill-rule:nonzero;fill:rgb(0%,0%,0%);fill-opacity:1;" d="M 22.125 14.65625 L 22.125 21.171875 C 22.125 21.6875 21.703125 22.109375 21.1875 22.109375 L 2.8125 22.109375 C 2.296875 22.109375 1.875 21.6875 1.875 21.171875 L 1.875 14.65625 L 0 14.65625 L 0 21.171875 C 0 22.722656 1.261719 23.984375 2.8125 23.984375 L 21.1875 23.984375 C 22.738281 23.984375 24 22.722656 24 21.171875 L 24 14.65625 Z M 22.125 14.65625 "/>
<path style=" stroke:none;fill-rule:nonzero;fill:rgb(0%,0%,0%);fill-opacity:1;" d="M 12 0.015625 L 6.175781 5.84375 L 7.5 7.167969 L 11.0625 3.605469 L 11.0625 18.21875 L 12.9375 18.21875 L 12.9375 3.605469 L 16.5 7.167969 L 17.824219 5.84375 Z M 12 0.015625 "/>
</g>
</svg>
