<?xml version="1.0" encoding="UTF-8"?>
<svg xmlns="http://www.w3.org/2000/svg" xmlns:xlink="http://www.w3.org/1999/xlink" width="24" height="24" viewBox="0 0 24 24" version="1.1">
<g id="surface1">
<path style=" stroke:none;fill-rule:nonzero;fill:rgb(92.54902%,93.72549%,94.509804%);fill-opacity:1;" d="M 23.25 20.25 L 12.75 20.25 C 12.335938 20.25 12 19.914062 12 19.5 C 12 19.085938 12 4.914062 12 4.5 C 12 4.085938 12.335938 3.75 12.75 3.75 L 23.25 3.75 C 23.664062 3.75 24 4.085938 24 4.5 L 24 19.5 C 24 19.914062 23.664062 20.25 23.25 20.25 Z M 23.25 20.25 "/>
<path style=" stroke:none;fill-rule:nonzero;fill:rgb(9.803922%,46.27451%,82.352941%);fill-opacity:1;" d="M 20.25 8.25 L 12.75 8.25 C 12.335938 8.25 12 7.914062 12 7.5 C 12 7.085938 12.335938 6.75 12.75 6.75 L 20.25 6.75 C 20.664062 6.75 21 7.085938 21 7.5 C 21 7.914062 20.664062 8.25 20.25 8.25 Z M 20.25 8.25 "/>
<path style=" stroke:none;fill-rule:nonzero;fill:rgb(9.803922%,46.27451%,82.352941%);fill-opacity:1;" d="M 20.25 11.25 L 12.75 11.25 C 12.335938 11.25 12 10.914062 12 10.5 C 12 10.085938 12.335938 9.75 12.75 9.75 L 20.25 9.75 C 20.664062 9.75 21 10.085938 21 10.5 C 21 10.914062 20.664062 11.25 20.25 11.25 Z M 20.25 11.25 "/>
<path style=" stroke:none;fill-rule:nonzero;fill:rgb(9.803922%,46.27451%,82.352941%);fill-opacity:1;" d="M 20.25 14.25 L 12.75 14.25 C 12.335938 14.25 12 13.914062 12 13.5 C 12 13.085938 12.335938 12.75 12.75 12.75 L 20.25 12.75 C 20.664062 12.75 21 13.085938 21 13.5 C 21 13.914062 20.664062 14.25 20.25 14.25 Z M 20.25 14.25 "/>
<path style=" stroke:none;fill-rule:nonzero;fill:rgb(9.803922%,46.27451%,82.352941%);fill-opacity:1;" d="M 20.25 17.25 L 12.75 17.25 C 12.335938 17.25 12 16.914062 12 16.5 C 12 16.085938 12.335938 15.75 12.75 15.75 L 20.25 15.75 C 20.664062 15.75 21 16.085938 21 16.5 C 21 16.914062 20.664062 17.25 20.25 17.25 Z M 20.25 17.25 "/>
<path style=" stroke:none;fill-rule:nonzero;fill:rgb(8.235294%,39.607843%,75.294118%);fill-opacity:1;" d="M 13.226562 0.925781 C 13.058594 0.78125 12.828125 0.71875 12.613281 0.765625 L 0.613281 3.015625 C 0.257812 3.078125 0 3.390625 0 3.75 L 0 20.25 C 0 20.609375 0.257812 20.921875 0.613281 20.988281 L 12.613281 23.238281 C 12.660156 23.246094 12.703125 23.25 12.75 23.25 C 12.925781 23.25 13.09375 23.191406 13.226562 23.078125 C 13.402344 22.933594 13.5 22.722656 13.5 22.5 L 13.5 1.5 C 13.5 1.277344 13.402344 1.066406 13.226562 0.925781 Z M 13.226562 0.925781 "/>
<path style=" stroke:none;fill-rule:nonzero;fill:rgb(98.039216%,98.039216%,98.039216%);fill-opacity:1;" d="M 9.746094 15.835938 C 9.707031 16.175781 9.4375 16.453125 9.09375 16.496094 C 9.0625 16.5 9.03125 16.5 9 16.5 C 8.691406 16.5 8.410156 16.308594 8.296875 16.015625 L 6.75 11.886719 L 5.203125 16.015625 C 5.082031 16.335938 4.765625 16.53125 4.417969 16.496094 C 4.078125 16.460938 3.804688 16.195312 3.757812 15.855469 L 3.007812 10.605469 C 2.949219 10.195312 3.234375 9.816406 3.644531 9.757812 C 4.054688 9.699219 4.433594 9.984375 4.492188 10.394531 L 4.828125 12.738281 L 6.046875 9.484375 C 6.265625 8.902344 7.230469 8.902344 7.453125 9.484375 L 8.601562 12.550781 L 9.003906 8.917969 C 9.050781 8.503906 9.433594 8.210938 9.832031 8.253906 C 10.246094 8.300781 10.539062 8.671875 10.496094 9.082031 Z M 9.746094 15.835938 "/>
</g>
</svg>
