<svg xmlns="http://www.w3.org/2000/svg" xmlns:xlink="http://www.w3.org/1999/xlink" version="1.1" style="enable-background:new 0 0 428.583 428.583;" xml:space="preserve" width="428.583" height="428.583"><rect id="backgroundrect" width="100%" height="100%" x="0" y="0" fill="none" stroke="none"/>
















<g class="currentLayer" style=""><title>Layer 1</title><path d="M380.9451005373001,253.749 v-10.44 c0,-20.145 -14.004,-33.786 -26.358,-45.822 c-1.544,-1.5030000000000001 -3.081,-3 -4.582,-4.502 c-8.306000000000001,-8.305 -15.127,-15.144 -20.102,-20.131 c-1.621,-1.625 -3.047,-3.054 -4.264,-4.273 v-9.861 c4.167,3.486 9.53,5.589 15.375,5.589 h15.674 c4.418,0 8,-3.582 8,-8 v-32 c0,-4.418 -3.582,-8 -8,-8 h-15.674 c-5.845,0 -11.208,2.103 -15.375,5.589 v-3.714 c0,-7.211 -2.544,-23.187 -24.458,-25.761 v-1.114 c0,-6.875 -3.799,-14.737 -10.424,-21.569 c-5.356,-5.524 -10.858,-10.866 -11.09,-11.09 c-3.172,-3.077 -8.234,-3 -11.313,0.17200000000000001 c-3.076,3.171 -2.999,8.236 0.17200000000000001,11.312 c0.05500000000000001,0.05400000000000001 5.563,5.401 10.744,10.744 c4.675,4.822 5.91,8.932 5.91,10.431000000000001 v160.917 c0,13.28 -10.804,24.083 -24.084,24.083 c-0.5890000000000001,0 -1.162,0.06300000000000001 -1.714,0.18400000000000002 h-78.521 v-40.768 c0,-8.326 -3.199,-15.917 -8.429,-21.616 c5.15,-4.358 8.429,-10.862 8.429,-18.121 v-8.36 c0,-13.088 -10.648,-23.737000000000002 -23.737000000000002,-23.737000000000002 H24.26610053730011 C11.17710053730011,163.892 0.5291005373001099,174.541 0.5291005373001099,187.629 v8.36 c0,13.088 10.648,23.737000000000002 23.737000000000002,23.737000000000002 h12.025 c-3.792,2.327 -7.45,4.888 -10.94,7.6850000000000005 c-3.151,2.524 -12.739,10.208 -12.739,26.565 v37.75 c0,13.982 8.876,25.909 21.246,30.371 c4.662,28.523 29.52,50.094 58.996,50.094 c28.778,0 53.22,-20.649 58.655,-48.215 h159.16 c5.408,27.447 29.644,48.215 58.647,48.215 c32.972,0 59.796,-26.825 59.796,-59.796 C429.11210053730014,283.405 408.3681005373001,259.177 380.9451005373001,253.749 zM341.0141005373001,132.309 h7.674 v16 h-7.674 c-4.411,0 -8,-3.589 -8,-8 S336.6031005373001,132.309 341.0141005373001,132.309 zM24.26610053730011,203.726 c-4.266,0 -7.737,-3.471 -7.737,-7.737 v-8.36 c0,-4.266 3.471,-7.737 7.737,-7.737 h132.859 c4.266,0 7.737,3.471 7.737,7.737 v8.36 c0,4.266 -3.471,7.737 -7.737,7.737 H24.26610053730011 zM28.61210053730011,253.976 c0,-7.6240000000000006 3.242,-11.272 6.745,-14.08 c16.466,-13.196 36.346000000000004,-20.17 57.491,-20.17 h56.015 c8.822,0 16,7.178 16,16 v48.583 c0,4.251 3.325,7.76 7.57,7.9879999999999995 l3.417,0.18400000000000002 c0.14300000000000002,0.008000000000000002 0.28700000000000003,0.012000000000000002 0.43000000000000005,0.012000000000000002 h84.819 c0.6570000000000001,0 1.2970000000000002,-0.07900000000000001 1.908,-0.22900000000000004 c21.22,-0.999 38.176,-18.576 38.176,-40.039 V108.57 c8.449,1.577 8.458,6.472 8.458,9.614 v53.708 c0,2.122 0.8430000000000001,4.156 2.343,5.657 c1.565,1.566 3.785,3.791 6.593,6.605 c4.979,4.991 11.805,11.833 20.115,20.145 c1.5510000000000002,1.5510000000000002 3.138,3.097 4.731,4.649 c11.068,10.782 21.523,20.967 21.523,34.361 v9.473 c-29.468,2.142 -53.066,25.729 -55.23,55.194 H44.61210053730011 c-8.673,0 -16,-7.441 -16,-16.25 V253.976 zM109.02710053730011,323.976 c-3.6390000000000002,5.06 -9.569,8.327 -16.17,8.327 c-6.597,0 -12.525,-3.267 -16.163,-8.327 H109.02710053730011 zM92.85410053730011,356.191 c-20.019,0 -37.123,-13.585 -42.226,-32.215 h8.249 c4.861,14.261 18.405,24.327 33.98,24.327 c15.579,0 29.126,-10.065 33.988,-24.327 h8.25 C129.98310053730012,342.595 112.84410053730011,356.191 92.85410053730011,356.191 zM369.3161005373001,356.191 c-24.142,0 -43.782,-19.647 -43.782,-43.796 c0,-9.251 2.891,-17.836 7.806,-24.914 l30.303,30.552 c1.5630000000000002,1.577 3.621,2.366 5.68,2.366 c2.036,0 4.073,-0.773 5.634,-2.3200000000000003 c3.137,-3.111 3.157,-8.176 0.04600000000000001,-11.313 l-12.83,-12.935 c2.253,-0.8670000000000001 4.663,-1.336 7.146,-1.336 c10.977,0 19.906,8.928 19.906,19.903 c0,10.977 -8.93,19.906 -19.906,19.906 c-10.972,0 -19.898,-8.93 -19.898,-19.906 c0,-4.418 -3.582,-8 -8,-8 s-8,3.582 -8,8 c0,19.799 16.104,35.906 35.898,35.906 c19.799,0 35.906,-16.107 35.906,-35.906 c0,-19.797 -16.107,-35.903 -35.906,-35.903 c-6.808,0 -13.327,1.895 -18.967,5.418 l-5.658,-5.704 c7.021,-4.793 15.499,-7.602 24.622,-7.602 c24.149,0 43.796,19.644 43.796,43.789 C413.11210053730014,336.544 393.4661005373001,356.191 369.3161005373001,356.191 z" id="svg_1" class="selected" fill="#6d6d6d" fill-opacity="1"/><g id="svg_2">
</g><g id="svg_3">
</g><g id="svg_4">
</g><g id="svg_5">
</g><g id="svg_6">
</g><g id="svg_7">
</g><g id="svg_8">
</g><g id="svg_9">
</g><g id="svg_10">
</g><g id="svg_11">
</g><g id="svg_12">
</g><g id="svg_13">
</g><g id="svg_14">
</g><g id="svg_15">
</g><g id="svg_16">
</g></g></svg>